<svg xmlns="http://www.w3.org/2000/svg" xmlns:xlink="http://www.w3.org/1999/xlink" preserveAspectRatio="xMidYMid" width="361" height="232" viewBox="0 0 361 232">
  <defs>
    <style>

      .cls-3 {
        fill: #afafaf;
      }

      .cls-6 {
        fill: #ffffff;
        stroke: #afafaf;
        stroke-width: 2px;
      }

      .cls-9 {
        fill: #36b452;
      }

      .cls-13 {
        fill: #30a94b;
      }

      .cls-17 {
        fill: #efefef;
      }

      .cls-18 {
        fill: #ffffff;
        stroke: #dfdfdf;
        stroke-linecap: round;
        stroke-width: 2px;
        stroke-dasharray: 0.001,4;
      }

      .cls-30 {
        fill: #e3e3e3;
      }
    </style>
  </defs>
  <g id="illu-uiux">
    <path d="M10.039,75.391 C9.792,75.143 9.457,75.005 9.107,75.005 C8.757,75.005 8.423,75.143 8.176,75.391 C8.176,75.391 0.388,83.177 0.388,83.177 C-0.126,83.692 -0.126,84.527 0.388,85.040 C0.388,85.040 35.960,120.608 35.960,120.608 C36.207,120.855 36.542,120.994 36.892,120.994 C37.242,120.994 37.577,120.855 37.824,120.608 C37.824,120.608 45.612,112.821 45.612,112.821 C46.126,112.306 46.126,111.472 45.612,110.958 C45.612,110.958 10.039,75.391 10.039,75.391 ZM8.903,76.526 C9.015,76.414 9.200,76.414 9.313,76.526 C9.313,76.526 44.476,111.684 44.476,111.684 C44.530,111.738 44.561,111.813 44.561,111.889 C44.561,111.966 44.530,112.040 44.476,112.094 C44.476,112.094 37.096,119.473 37.096,119.473 C37.042,119.527 36.968,119.558 36.891,119.558 C36.815,119.558 36.740,119.527 36.686,119.473 C36.686,119.473 35.862,118.648 35.862,118.648 C35.862,118.648 41.238,113.267 41.238,113.267 C41.452,113.056 41.452,112.715 41.238,112.503 C41.028,112.293 40.685,112.289 40.475,112.503 C40.475,112.503 35.096,117.881 35.096,117.881 C35.096,117.881 33.421,116.209 33.421,116.209 C33.421,116.209 36.885,112.745 36.885,112.745 C37.097,112.534 37.097,112.192 36.885,111.980 C36.673,111.765 36.333,111.765 36.120,111.980 C36.120,111.980 32.655,115.442 32.655,115.442 C32.655,115.442 31.274,114.059 31.274,114.059 C31.274,114.059 34.738,110.596 34.738,110.596 C34.948,110.385 34.948,110.040 34.738,109.830 C34.523,109.619 34.181,109.619 33.968,109.830 C33.968,109.830 30.508,113.291 30.508,113.291 C30.508,113.291 29.182,111.967 29.182,111.967 C29.182,111.967 32.645,108.505 32.645,108.505 C32.856,108.295 32.856,107.952 32.645,107.743 C32.433,107.527 32.092,107.527 31.878,107.743 C31.878,107.743 28.415,111.204 28.415,111.204 C28.415,111.204 26.919,109.703 26.919,109.703 C26.919,109.703 32.298,104.327 32.298,104.327 C32.509,104.111 32.509,103.770 32.298,103.558 C32.085,103.347 31.744,103.347 31.530,103.558 C31.530,103.558 26.153,108.938 26.153,108.938 C26.153,108.938 25.116,107.902 25.116,107.902 C25.116,107.902 28.755,104.267 28.755,104.267 C28.967,104.056 28.967,103.714 28.753,103.501 C28.543,103.288 28.200,103.288 27.988,103.501 C27.988,103.501 24.351,107.138 24.351,107.138 C24.351,107.138 22.968,105.755 22.968,105.755 C22.968,105.755 26.606,102.116 26.606,102.116 C26.817,101.906 26.817,101.563 26.606,101.352 C26.393,101.139 26.053,101.139 25.840,101.352 C25.840,101.352 22.202,104.988 22.202,104.988 C22.202,104.988 20.878,103.663 20.878,103.663 C20.878,103.663 24.515,100.029 24.515,100.029 C24.727,99.815 24.727,99.473 24.515,99.262 C24.302,99.052 23.960,99.052 23.749,99.262 C23.749,99.262 20.111,102.897 20.111,102.897 C20.111,102.897 18.596,101.383 18.596,101.383 C18.596,101.383 23.978,96.003 23.978,96.003 C24.188,95.792 24.186,95.449 23.975,95.239 C23.764,95.028 23.421,95.028 23.211,95.236 C23.211,95.236 17.830,100.616 17.830,100.616 C17.830,100.616 16.160,98.943 16.160,98.943 C16.160,98.943 19.620,95.480 19.620,95.480 C19.833,95.269 19.833,94.927 19.618,94.716 C19.410,94.503 19.066,94.504 18.856,94.716 C18.856,94.716 15.392,98.177 15.392,98.177 C15.392,98.177 14.008,96.794 14.008,96.794 C14.008,96.794 17.473,93.333 17.473,93.333 C17.682,93.121 17.682,92.778 17.473,92.568 C17.260,92.355 16.919,92.355 16.707,92.565 C16.707,92.565 13.245,96.030 13.245,96.030 C13.245,96.030 11.920,94.702 11.920,94.702 C11.920,94.702 15.381,91.242 15.381,91.242 C15.594,91.031 15.593,90.688 15.381,90.475 C15.171,90.264 14.829,90.264 14.616,90.475 C14.616,90.475 11.154,93.939 11.154,93.939 C11.154,93.939 9.656,92.442 9.656,92.442 C9.656,92.442 15.036,87.062 15.036,87.062 C15.245,86.851 15.245,86.506 15.035,86.294 C14.823,86.083 14.480,86.083 14.269,86.294 C14.269,86.294 8.893,91.676 8.893,91.676 C8.893,91.676 7.859,90.640 7.859,90.640 C7.859,90.640 11.494,87.005 11.494,87.005 C11.706,86.793 11.706,86.452 11.494,86.241 C11.283,86.027 10.941,86.027 10.728,86.241 C10.728,86.241 7.090,89.877 7.090,89.877 C7.090,89.877 5.709,88.494 5.709,88.494 C5.709,88.494 9.345,84.858 9.345,84.858 C9.556,84.645 9.556,84.303 9.345,84.091 C9.134,83.879 8.792,83.879 8.579,84.091 C8.579,84.091 4.944,87.726 4.944,87.726 C4.944,87.726 3.618,86.403 3.618,86.403 C3.618,86.403 7.254,82.764 7.254,82.764 C7.466,82.556 7.466,82.213 7.254,82.000 C7.042,81.789 6.701,81.789 6.489,82.000 C6.489,82.000 2.850,85.638 2.850,85.638 C2.850,85.638 1.498,84.283 1.498,84.283 C1.398,84.185 1.398,84.025 1.498,83.926 C1.498,83.926 8.903,76.526 8.903,76.526 Z" id="path-1" class="cls-3" fill-rule="evenodd"/>
    <path d="M52.646,56.530 C52.646,56.530 54.999,54.030 54.999,54.030 C54.999,54.030 49.824,49.001 49.824,49.001 C49.824,49.001 47.471,51.500 47.471,51.500 C47.471,51.500 46.312,50.374 46.312,50.374 C46.312,50.374 25.467,72.518 25.467,72.518 C25.467,72.518 25.299,73.232 25.299,73.232 C25.299,73.232 22.997,82.998 22.997,82.998 C22.997,82.998 32.496,80.228 32.496,80.228 C32.496,80.228 33.191,80.026 33.191,80.026 C33.191,80.026 54.036,57.883 54.036,57.883 C54.036,57.883 52.646,56.530 52.646,56.530 ZM49.738,56.110 C49.738,56.110 30.827,76.202 30.827,76.202 C30.827,76.202 29.333,74.749 29.333,74.749 C29.333,74.749 48.245,54.658 48.245,54.658 C48.245,54.658 49.738,56.110 49.738,56.110 ZM46.367,52.831 C46.367,52.831 47.627,54.057 47.627,54.057 C47.627,54.057 28.715,74.148 28.715,74.148 C28.715,74.148 27.455,72.922 27.455,72.922 C27.455,72.922 46.367,52.831 46.367,52.831 ZM26.944,80.040 C26.944,80.040 25.730,78.861 25.730,78.861 C25.730,78.861 26.730,74.624 26.730,74.624 C26.730,74.624 31.065,78.838 31.065,78.838 C31.065,78.838 26.944,80.040 26.944,80.040 ZM32.706,78.027 C32.706,78.027 31.444,76.801 31.444,76.801 C31.444,76.801 50.357,56.710 50.357,56.710 C50.357,56.710 51.619,57.936 51.619,57.936 C51.619,57.936 32.706,78.027 32.706,78.027 Z" id="path-2" class="cls-3" fill-rule="evenodd"/>
    <g id="brow">
      <path d="M65.000,1.000 C65.000,1.000 305.000,1.000 305.000,1.000 C307.761,1.000 310.000,3.239 310.000,6.000 C310.000,6.000 310.000,176.000 310.000,176.000 C310.000,178.761 307.761,181.000 305.000,181.000 C305.000,181.000 65.000,181.000 65.000,181.000 C62.239,181.000 60.000,178.761 60.000,176.000 C60.000,176.000 60.000,6.000 60.000,6.000 C60.000,3.239 62.239,1.000 65.000,1.000 Z" id="path-3" class="cls-6" fill-rule="evenodd"/>
      <g id="group-22">
        <path d="M60.000,20.000 C60.000,20.000 60.000,19.000 60.000,19.000 C60.000,19.000 308.000,19.000 308.000,19.000 C308.000,19.000 308.000,20.000 308.000,20.000 C308.000,20.000 60.000,20.000 60.000,20.000 Z" id="path-4" class="cls-3" fill-rule="evenodd"/>
        <circle id="circle-1" class="cls-9" cx="71" cy="12" r="3"/>
        <circle id="circle-2" class="cls-9" cx="81" cy="12" r="3"/>
        <circle id="circle-3" class="cls-9" cx="91" cy="12" r="3"/>
      </g>
      <g id="group-23">
        <rect id="rect-1" class="cls-13" x="70" y="26" width="22" height="4"/>
        <rect id="rect-2" class="cls-13" x="100" y="26" width="22" height="4"/>
        <rect id="rect-3" class="cls-13" x="288" y="26" width="12" height="4"/>
        <rect id="rect-4" class="cls-13" x="268" y="26" width="12" height="4"/>
        <rect id="rect-5" class="cls-17" x="70" y="36" width="230" height="20"/>
        <rect id="rect-6" class="cls-18" x="70" y="64" width="50" height="87"/>
        <rect id="rect-7" class="cls-18" x="130" y="121" width="170" height="49"/>
        <rect id="rect-8" class="cls-17" x="130" y="104" width="170" height="7"/>
        <rect id="rect-9" class="cls-17" x="130" y="65" width="170" height="30"/>
        <path d="M159.000,47.000 C159.000,47.000 159.000,43.000 159.000,43.000 C159.000,43.000 192.000,43.000 192.000,43.000 C192.000,43.000 192.000,47.000 192.000,47.000 C192.000,47.000 159.000,47.000 159.000,47.000 ZM119.000,43.000 C119.000,43.000 152.000,43.000 152.000,43.000 C152.000,43.000 152.000,47.000 152.000,47.000 C152.000,47.000 119.000,47.000 119.000,47.000 C119.000,47.000 119.000,43.000 119.000,43.000 ZM79.000,43.000 C79.000,43.000 112.000,43.000 112.000,43.000 C112.000,43.000 112.000,47.000 112.000,47.000 C112.000,47.000 79.000,47.000 79.000,47.000 C79.000,47.000 79.000,43.000 79.000,43.000 Z" id="path-5" class="cls-3" fill-rule="evenodd"/>
        <rect id="rect-10" class="cls-3" x="260" y="44" width="33" height="4"/>
      </g>
    </g>
    <g id="group-24">
      <path d="M30.832,166.563 C30.832,166.563 15.832,192.543 15.832,192.543 C15.832,192.543 15.832,192.543 15.832,192.543 C15.832,192.543 14.832,194.275 14.832,194.275 C14.832,194.275 14.832,194.275 14.832,194.275 C14.832,194.275 15.698,194.775 15.698,194.775 C15.698,194.775 18.296,196.275 18.296,196.275 C18.296,196.275 19.162,196.775 19.162,196.775 C19.162,196.775 20.028,197.275 20.028,197.275 C20.028,197.275 20.028,197.275 20.028,197.275 C20.028,197.275 21.028,195.543 21.028,195.543 C21.028,195.543 21.028,195.543 21.028,195.543 C21.028,195.543 37.028,167.830 37.028,167.830 C37.028,167.830 36.162,167.331 36.162,167.331 C36.162,167.331 37.162,165.598 37.162,165.598 C37.162,165.598 33.698,163.598 33.698,163.598 C33.698,163.598 32.698,165.331 32.698,165.331 C32.698,165.331 31.832,164.830 31.832,164.830 C31.832,164.830 31.832,164.830 31.832,164.830 M9.198,206.034 C9.198,206.034 10.064,206.534 10.064,206.534 C10.064,206.534 9.064,208.266 9.064,208.266 C9.064,208.266 9.064,208.266 9.064,208.266 C9.064,208.266 8.262,210.936 8.262,210.936 C8.262,210.936 8.857,211.279 8.857,211.279 C8.857,211.279 10.796,209.266 10.796,209.266 C10.796,209.266 10.796,209.266 10.796,209.266 C10.796,209.266 11.796,207.534 11.796,207.534 C11.796,207.534 12.662,208.034 12.662,208.034 C12.662,208.034 19.528,198.142 19.528,198.142 C19.528,198.142 14.332,195.142 14.332,195.142 C14.332,195.142 9.198,206.034 9.198,206.034 ZM12.296,206.668 C12.296,206.668 10.564,205.668 10.564,205.668 C10.564,205.668 14.698,196.507 14.698,196.507 C14.698,196.507 18.162,198.507 18.162,198.507 C18.162,198.507 12.296,206.668 12.296,206.668 Z" id="path-6" class="cls-13" fill-rule="evenodd"/>
      <path d="M12.000,195.000 C12.000,195.000 12.000,163.000 12.000,163.000 C12.000,163.000 11.000,163.000 11.000,163.000 C11.000,163.000 11.000,161.000 11.000,161.000 C11.000,161.000 7.000,161.000 7.000,161.000 C7.000,161.000 7.000,163.000 7.000,163.000 C7.000,163.000 6.000,163.000 6.000,163.000 C6.000,163.000 6.000,163.000 6.000,163.000 C6.000,163.000 4.000,163.000 4.000,163.000 C4.000,163.000 3.000,164.000 3.000,164.000 C3.000,164.000 4.000,181.000 4.000,181.000 C4.000,181.000 5.000,182.000 5.000,182.000 C5.000,182.000 5.000,165.000 5.000,165.000 C5.000,165.000 6.000,165.000 6.000,165.000 C6.000,165.000 6.000,195.000 6.000,195.000 C6.000,195.000 5.000,195.000 5.000,195.000 C5.000,195.000 5.000,197.000 5.000,197.000 C5.000,197.000 6.000,197.000 6.000,197.000 C6.000,197.000 7.000,197.000 7.000,197.000 C7.000,197.000 10.000,197.000 10.000,197.000 C10.000,197.000 11.000,197.000 11.000,197.000 C11.000,197.000 12.000,197.000 12.000,197.000 C12.000,197.000 13.000,197.000 13.000,197.000 C13.000,197.000 13.000,195.000 13.000,195.000 C13.000,195.000 12.000,195.000 12.000,195.000 ZM7.000,210.000 C7.000,210.000 8.000,210.000 8.000,210.000 C8.000,210.000 8.000,212.000 8.000,212.000 C8.000,212.000 8.000,212.000 8.000,212.000 C8.000,212.000 8.641,214.713 8.641,214.713 C8.641,214.713 9.328,214.713 9.328,214.713 C9.328,214.713 10.000,212.000 10.000,212.000 C10.000,212.000 10.000,212.000 10.000,212.000 C10.000,212.000 10.000,210.000 10.000,210.000 C10.000,210.000 11.000,210.000 11.000,210.000 C11.000,210.000 12.000,198.000 12.000,198.000 C12.000,198.000 6.000,198.000 6.000,198.000 C6.000,198.000 7.000,210.000 7.000,210.000 ZM10.000,209.000 C10.000,209.000 8.000,209.000 8.000,209.000 C8.000,209.000 7.000,199.000 7.000,199.000 C7.000,199.000 11.000,199.000 11.000,199.000 C11.000,199.000 10.000,209.000 10.000,209.000 Z" id="path-7" class="cls-3" fill-rule="evenodd"/>
      <path d="M1.000,185.000 C1.000,185.000 31.000,185.000 31.000,185.000 C31.000,185.000 29.000,229.000 29.000,229.000 C29.000,230.105 28.105,231.000 27.000,231.000 C27.000,231.000 5.000,231.000 5.000,231.000 C3.895,231.000 3.000,230.105 3.000,229.000 C3.000,229.000 1.000,185.000 1.000,185.000 Z" id="path-8" class="cls-6" fill-rule="evenodd"/>
      <path d="M14.000,198.000 C14.000,198.000 14.000,196.000 14.000,196.000 C14.000,196.000 20.000,196.000 20.000,196.000 C20.000,196.000 20.000,198.000 20.000,198.000 C20.000,198.000 14.000,198.000 14.000,198.000 ZM10.000,199.000 C8.895,199.000 8.000,198.104 8.000,197.000 C8.000,195.895 8.895,195.000 10.000,195.000 C11.104,195.000 12.000,195.895 12.000,197.000 C12.000,198.104 11.104,199.000 10.000,199.000 Z" id="path-9" class="cls-13" fill-rule="evenodd"/>
    </g>
    <g id="notepad">
      <path d="M271.707,209.908 C271.707,209.908 285.258,213.534 285.258,213.534 C285.258,213.534 281.109,228.998 281.109,228.998 C281.109,228.998 275.889,221.386 275.889,221.386 C275.889,221.386 267.558,225.373 267.558,225.373 C267.558,225.373 271.707,209.908 271.707,209.908 Z" id="path-10" class="cls-30" fill-rule="evenodd"/>
      <path d="M285.150,115.084 C285.150,115.084 357.777,134.248 357.777,134.248 C359.381,134.678 360.333,136.324 359.903,137.924 C359.903,137.924 335.523,228.779 335.523,228.779 C335.094,230.380 333.445,231.331 331.842,230.901 C331.842,230.901 259.214,211.737 259.214,211.737 C257.611,211.308 256.659,209.661 257.089,208.060 C257.089,208.060 281.468,117.207 281.468,117.207 C281.898,115.605 283.546,114.654 285.150,115.084 Z" id="path-11" class="cls-6" fill-rule="evenodd"/>
      <path d="M287.026,116.119 C287.026,116.119 290.898,117.155 290.898,117.155 C290.898,117.155 265.962,211.808 265.962,211.808 C265.962,211.808 262.090,210.772 262.090,210.772 C262.090,210.772 287.026,116.119 287.026,116.119 Z" id="path-12" class="cls-30" fill-rule="evenodd"/>
      <path d="M243.000,202.000 C243.000,202.000 243.000,170.000 243.000,170.000 C243.000,170.000 242.000,170.000 242.000,170.000 C242.000,170.000 242.000,168.000 242.000,168.000 C242.000,168.000 238.000,168.000 238.000,168.000 C238.000,168.000 238.000,170.000 238.000,170.000 C238.000,170.000 237.000,170.000 237.000,170.000 C237.000,170.000 237.000,170.000 237.000,170.000 C237.000,170.000 235.000,170.000 235.000,170.000 C235.000,170.000 234.000,171.000 234.000,171.000 C234.000,171.000 235.000,188.000 235.000,188.000 C235.000,188.000 236.000,189.000 236.000,189.000 C236.000,189.000 236.000,172.000 236.000,172.000 C236.000,172.000 237.000,172.000 237.000,172.000 C237.000,172.000 237.000,202.000 237.000,202.000 C237.000,202.000 236.000,202.000 236.000,202.000 C236.000,202.000 236.000,204.000 236.000,204.000 C236.000,204.000 237.000,204.000 237.000,204.000 C237.000,204.000 238.000,204.000 238.000,204.000 C238.000,204.000 241.000,204.000 241.000,204.000 C241.000,204.000 242.000,204.000 242.000,204.000 C242.000,204.000 243.000,204.000 243.000,204.000 C243.000,204.000 244.000,204.000 244.000,204.000 C244.000,204.000 244.000,202.000 244.000,202.000 C244.000,202.000 243.000,202.000 243.000,202.000 ZM238.000,217.000 C238.000,217.000 239.000,217.000 239.000,217.000 C239.000,217.000 239.000,219.000 239.000,219.000 C239.000,219.000 239.000,219.000 239.000,219.000 C239.000,219.000 239.641,221.713 239.641,221.713 C239.641,221.713 240.328,221.713 240.328,221.713 C240.328,221.713 241.000,219.000 241.000,219.000 C241.000,219.000 241.000,219.000 241.000,219.000 C241.000,219.000 241.000,217.000 241.000,217.000 C241.000,217.000 242.000,217.000 242.000,217.000 C242.000,217.000 243.000,205.000 243.000,205.000 C243.000,205.000 237.000,205.000 237.000,205.000 C237.000,205.000 238.000,217.000 238.000,217.000 ZM241.000,216.000 C241.000,216.000 239.000,216.000 239.000,216.000 C239.000,216.000 238.000,206.000 238.000,206.000 C238.000,206.000 242.000,206.000 242.000,206.000 C242.000,206.000 241.000,216.000 241.000,216.000 Z" id="path-13" class="cls-3" fill-rule="evenodd"/>
      <path d="M323.069,148.926 C323.069,148.926 324.816,154.933 324.816,154.933 C324.816,154.933 323.014,154.412 323.014,154.412 C322.888,154.375 322.798,154.315 322.742,154.231 C322.686,154.147 322.647,154.058 322.626,153.964 C322.626,153.964 321.450,149.588 321.450,149.588 C321.390,149.677 321.320,149.759 321.240,149.833 C321.240,149.833 318.087,152.652 318.087,152.652 C318.011,152.713 317.929,152.766 317.840,152.811 C317.752,152.856 317.652,152.862 317.540,152.830 C317.540,152.830 315.852,152.342 315.852,152.342 C315.852,152.342 320.526,148.272 320.526,148.272 C320.526,148.272 318.790,142.655 318.790,142.655 C318.790,142.655 320.593,143.176 320.593,143.176 C320.718,143.212 320.804,143.255 320.850,143.305 C320.897,143.355 320.933,143.425 320.961,143.515 C320.961,143.515 322.136,147.717 322.136,147.717 C322.174,147.670 322.215,147.622 322.258,147.573 C322.301,147.525 322.349,147.477 322.402,147.429 C322.402,147.429 325.356,144.822 325.356,144.822 C325.430,144.751 325.502,144.704 325.572,144.680 C325.641,144.657 325.721,144.658 325.811,144.684 C325.811,144.684 327.539,145.183 327.539,145.183 C327.539,145.183 323.069,148.926 323.069,148.926 ZM315.255,149.681 C314.927,150.118 314.538,150.464 314.087,150.720 C313.637,150.976 313.134,151.132 312.579,151.188 C312.023,151.244 311.434,151.181 310.811,151.001 C310.183,150.820 309.650,150.557 309.210,150.214 C308.770,149.871 308.427,149.471 308.183,149.014 C307.939,148.557 307.794,148.056 307.750,147.512 C307.706,146.967 307.767,146.405 307.935,145.827 C307.935,145.827 309.618,140.003 309.618,140.003 C309.618,140.003 311.427,140.526 311.427,140.526 C311.427,140.526 309.746,146.343 309.746,146.343 C309.638,146.715 309.591,147.066 309.605,147.396 C309.619,147.725 309.691,148.024 309.820,148.292 C309.949,148.560 310.134,148.792 310.376,148.988 C310.618,149.185 310.914,149.333 311.264,149.434 C311.614,149.535 311.943,149.568 312.253,149.531 C312.562,149.494 312.841,149.397 313.090,149.241 C313.340,149.085 313.558,148.871 313.746,148.600 C313.933,148.329 314.081,148.007 314.189,147.635 C314.189,147.635 315.872,141.811 315.872,141.811 C315.872,141.811 317.681,142.334 317.681,142.334 C317.681,142.334 315.998,148.158 315.998,148.158 C315.830,148.736 315.583,149.244 315.255,149.681 Z" id="path-14" class="cls-13" fill-rule="evenodd"/>
    </g>
  </g>
</svg>
