<svg xmlns="http://www.w3.org/2000/svg" xmlns:xlink="http://www.w3.org/1999/xlink" preserveAspectRatio="xMidYMid" width="360" height="232" viewBox="0 0 360 232">
  <defs>
    <style>

      .cls-4 {
        stroke: #e3e3e3;
        stroke-width: 1px;
        fill: none;
      }

      .cls-5 {
        fill: #afafaf;
      }

      .cls-7 {
        fill: #ffffff;
        stroke: #afafaf;
        stroke-width: 2px;
      }

      .cls-8 {
        fill: #ffffff;
        stroke: #afafaf;
        stroke-width: 1px;
      }

      .cls-9 {
        fill: #4f4f4f;
      }

      .cls-12 {
        fill: #e3e3e3;
      }

      .cls-13 {
        fill: #ffffff;
        stroke: #e3e3e3;
        stroke-width: 1px;
      }

      .cls-14 {
        filter: url(#color-overlay-1);
      }

      .cls-22 {
        fill: #f4f4f4;
      }

      .cls-35 {
        fill: #36b452;
      }

      .cls-37 {
        fill: #ffffff;
      }

      .cls-40 {
        fill: #62c074;
      }

      .cls-55 {
        fill: #f4f4f4;
        stroke: #afafaf;
        stroke-width: 2px;
      }

      .cls-59 {
        font-size: 10px;
      }

      .cls-60 {
        fill: #afafaf;
        text-anchor: middle;
        font-size: 10px;
        font-family: "Montserrat-Bold";
        font-weight: bold;
        text-transform: uppercase;
      }
    </style>

    <filter id="color-overlay-1" filterUnits="userSpaceOnUse">
      <feFlood flood-color="#afafaf" flood-opacity="1"/>
      <feComposite operator="in" in2="SourceGraphic"/>
      <feBlend mode="normal" in2="SourceGraphic" result="colorOverlay"/>
    </filter>
  </defs>
  <g id="our-process">
    <g id="cable">
      <path d="M140.500,90.500 C140.500,90.500 130.500,90.500 130.500,100.500 C130.500,110.500 120.500,110.500 120.500,110.500 C110.500,110.500 100.500,110.500 100.500,110.500 C100.500,110.500 90.500,110.500 90.500,100.500 C90.500,90.500 90.500,20.500 90.500,20.500 C90.500,20.500 90.500,10.500 100.500,10.500 C110.500,10.500 140.500,10.500 140.500,10.500 " id="path-1" class="cls-4" fill-rule="evenodd"/>
      <rect id="rect-1" class="cls-5" x="138" y="89" width="2" height="4"/>
    </g>
    <g id="macbook-pro">
      <path d="M146.000,1.000 C146.000,1.000 276.000,1.000 276.000,1.000 C278.761,1.000 281.000,3.239 281.000,6.000 C281.000,6.000 281.000,78.000 281.000,78.000 C281.000,80.761 278.761,83.000 276.000,83.000 C276.000,83.000 146.000,83.000 146.000,83.000 C143.239,83.000 141.000,80.761 141.000,78.000 C141.000,78.000 141.000,6.000 141.000,6.000 C141.000,3.239 143.239,1.000 146.000,1.000 Z" id="path-2" class="cls-7" fill-rule="evenodd"/>
      <path d="M150.053,10.076 C150.053,10.076 271.447,10.076 271.447,10.076 C273.267,10.076 274.743,11.541 274.743,13.348 C274.743,13.348 274.743,70.783 274.743,70.783 C274.743,72.590 273.267,74.055 271.447,74.055 C271.447,74.055 150.053,74.055 150.053,74.055 C148.233,74.055 146.757,72.590 146.757,70.783 C146.757,70.783 146.757,13.348 146.757,13.348 C146.757,11.541 148.233,10.076 150.053,10.076 Z" id="path-3" class="cls-8" fill-rule="evenodd"/>
      <circle id="circle-1" class="cls-9" cx="209" cy="7" r="1"/>
      <path d="M146.000,81.000 C146.000,81.000 276.000,81.000 276.000,81.000 C278.761,81.000 281.000,83.239 281.000,86.000 C281.000,86.000 281.000,166.000 281.000,166.000 C281.000,168.761 278.761,171.000 276.000,171.000 C276.000,171.000 146.000,171.000 146.000,171.000 C143.239,171.000 141.000,168.761 141.000,166.000 C141.000,166.000 141.000,86.000 141.000,86.000 C141.000,83.239 143.239,81.000 146.000,81.000 Z" id="path-4" class="cls-7" fill-rule="evenodd"/>
      <rect id="rect-2" class="cls-5" x="153" y="81" width="113" height="4"/>
      <path d="M196.000,146.000 C196.000,146.000 222.000,146.000 222.000,146.000 C223.105,146.000 224.000,146.895 224.000,148.000 C224.000,148.000 224.000,163.000 224.000,163.000 C224.000,164.104 223.105,165.000 222.000,165.000 C222.000,165.000 196.000,165.000 196.000,165.000 C194.895,165.000 194.000,164.104 194.000,163.000 C194.000,163.000 194.000,148.000 194.000,148.000 C194.000,146.895 194.895,146.000 196.000,146.000 Z" id="path-5" class="cls-12" fill-rule="evenodd"/>
      <path d="M152.500,89.500 C152.500,89.500 268.500,89.500 268.500,89.500 C270.328,89.500 272.500,91.671 272.500,93.500 C272.500,93.500 272.500,141.500 272.500,141.500 C272.500,143.329 270.328,144.500 268.500,144.500 C268.500,144.500 152.500,144.500 152.500,144.500 C150.672,144.500 148.500,142.329 148.500,140.500 C148.500,140.500 148.500,92.500 148.500,92.500 C148.500,90.671 150.672,89.500 152.500,89.500 Z" id="path-6" class="cls-13" fill-rule="evenodd"/>
      <g id="keyboard" class="cls-14">
        <path d="M266.000,101.000 C266.000,101.000 258.000,101.000 258.000,101.000 C256.895,101.000 256.000,100.105 256.000,99.000 C256.000,99.000 256.000,96.000 256.000,96.000 C256.000,94.895 256.895,94.000 258.000,94.000 C258.000,94.000 266.000,94.000 266.000,94.000 C267.105,94.000 268.000,94.895 268.000,96.000 C268.000,96.000 268.000,99.000 268.000,99.000 C268.000,100.105 267.105,101.000 266.000,101.000 ZM251.000,101.000 C251.000,101.000 247.000,101.000 247.000,101.000 C245.895,101.000 245.000,100.105 245.000,99.000 C245.000,99.000 245.000,96.000 245.000,96.000 C245.000,94.895 245.895,94.000 247.000,94.000 C247.000,94.000 251.000,94.000 251.000,94.000 C252.105,94.000 253.000,94.895 253.000,96.000 C253.000,96.000 253.000,99.000 253.000,99.000 C253.000,100.105 252.105,101.000 251.000,101.000 ZM241.000,101.000 C241.000,101.000 237.000,101.000 237.000,101.000 C235.895,101.000 235.000,100.105 235.000,99.000 C235.000,99.000 235.000,96.000 235.000,96.000 C235.000,94.895 235.895,94.000 237.000,94.000 C237.000,94.000 241.000,94.000 241.000,94.000 C242.104,94.000 243.000,94.895 243.000,96.000 C243.000,96.000 243.000,99.000 243.000,99.000 C243.000,100.105 242.104,101.000 241.000,101.000 ZM230.000,101.000 C230.000,101.000 226.000,101.000 226.000,101.000 C224.895,101.000 224.000,100.105 224.000,99.000 C224.000,99.000 224.000,96.000 224.000,96.000 C224.000,94.895 224.895,94.000 226.000,94.000 C226.000,94.000 230.000,94.000 230.000,94.000 C231.105,94.000 232.000,94.895 232.000,96.000 C232.000,96.000 232.000,99.000 232.000,99.000 C232.000,100.105 231.105,101.000 230.000,101.000 ZM219.000,101.000 C219.000,101.000 215.000,101.000 215.000,101.000 C213.895,101.000 213.000,100.105 213.000,99.000 C213.000,99.000 213.000,96.000 213.000,96.000 C213.000,94.895 213.895,94.000 215.000,94.000 C215.000,94.000 219.000,94.000 219.000,94.000 C220.104,94.000 221.000,94.895 221.000,96.000 C221.000,96.000 221.000,99.000 221.000,99.000 C221.000,100.105 220.104,101.000 219.000,101.000 ZM208.000,101.000 C208.000,101.000 204.000,101.000 204.000,101.000 C202.895,101.000 202.000,100.105 202.000,99.000 C202.000,99.000 202.000,96.000 202.000,96.000 C202.000,94.895 202.895,94.000 204.000,94.000 C204.000,94.000 208.000,94.000 208.000,94.000 C209.105,94.000 210.000,94.895 210.000,96.000 C210.000,96.000 210.000,99.000 210.000,99.000 C210.000,100.105 209.105,101.000 208.000,101.000 ZM198.000,101.000 C198.000,101.000 194.000,101.000 194.000,101.000 C192.895,101.000 192.000,100.105 192.000,99.000 C192.000,99.000 192.000,96.000 192.000,96.000 C192.000,94.895 192.895,94.000 194.000,94.000 C194.000,94.000 198.000,94.000 198.000,94.000 C199.104,94.000 200.000,94.895 200.000,96.000 C200.000,96.000 200.000,99.000 200.000,99.000 C200.000,100.105 199.104,101.000 198.000,101.000 ZM188.000,101.000 C188.000,101.000 184.000,101.000 184.000,101.000 C182.895,101.000 182.000,100.105 182.000,99.000 C182.000,99.000 182.000,96.000 182.000,96.000 C182.000,94.895 182.895,94.000 184.000,94.000 C184.000,94.000 188.000,94.000 188.000,94.000 C189.104,94.000 190.000,94.895 190.000,96.000 C190.000,96.000 190.000,99.000 190.000,99.000 C190.000,100.105 189.104,101.000 188.000,101.000 ZM178.000,101.000 C178.000,101.000 174.000,101.000 174.000,101.000 C172.895,101.000 172.000,100.105 172.000,99.000 C172.000,99.000 172.000,96.000 172.000,96.000 C172.000,94.895 172.895,94.000 174.000,94.000 C174.000,94.000 178.000,94.000 178.000,94.000 C179.105,94.000 180.000,94.895 180.000,96.000 C180.000,96.000 180.000,99.000 180.000,99.000 C180.000,100.105 179.105,101.000 178.000,101.000 ZM168.000,101.000 C168.000,101.000 164.000,101.000 164.000,101.000 C162.895,101.000 162.000,100.105 162.000,99.000 C162.000,99.000 162.000,96.000 162.000,96.000 C162.000,94.895 162.895,94.000 164.000,94.000 C164.000,94.000 168.000,94.000 168.000,94.000 C169.104,94.000 170.000,94.895 170.000,96.000 C170.000,96.000 170.000,99.000 170.000,99.000 C170.000,100.105 169.104,101.000 168.000,101.000 ZM158.000,101.000 C158.000,101.000 154.000,101.000 154.000,101.000 C152.895,101.000 152.000,100.105 152.000,99.000 C152.000,99.000 152.000,96.000 152.000,96.000 C152.000,94.895 152.895,94.000 154.000,94.000 C154.000,94.000 158.000,94.000 158.000,94.000 C159.104,94.000 160.000,94.895 160.000,96.000 C160.000,96.000 160.000,99.000 160.000,99.000 C160.000,100.105 159.104,101.000 158.000,101.000 Z" id="path-7" class="cls-12" fill-rule="evenodd"/>
        <path d="M266.000,110.000 C266.000,110.000 255.000,110.000 255.000,110.000 C253.895,110.000 253.000,109.104 253.000,108.000 C253.000,108.000 253.000,105.000 253.000,105.000 C253.000,103.895 253.895,103.000 255.000,103.000 C255.000,103.000 266.000,103.000 266.000,103.000 C267.105,103.000 268.000,103.895 268.000,105.000 C268.000,105.000 268.000,108.000 268.000,108.000 C268.000,109.104 267.105,110.000 266.000,110.000 ZM249.000,110.000 C249.000,110.000 245.000,110.000 245.000,110.000 C243.895,110.000 243.000,109.104 243.000,108.000 C243.000,108.000 243.000,105.000 243.000,105.000 C243.000,103.895 243.895,103.000 245.000,103.000 C245.000,103.000 249.000,103.000 249.000,103.000 C250.104,103.000 251.000,103.895 251.000,105.000 C251.000,105.000 251.000,108.000 251.000,108.000 C251.000,109.104 250.104,110.000 249.000,110.000 ZM239.000,110.000 C239.000,110.000 235.000,110.000 235.000,110.000 C233.895,110.000 233.000,109.104 233.000,108.000 C233.000,108.000 233.000,105.000 233.000,105.000 C233.000,103.895 233.895,103.000 235.000,103.000 C235.000,103.000 239.000,103.000 239.000,103.000 C240.105,103.000 241.000,103.895 241.000,105.000 C241.000,105.000 241.000,108.000 241.000,108.000 C241.000,109.104 240.105,110.000 239.000,110.000 ZM229.000,110.000 C229.000,110.000 225.000,110.000 225.000,110.000 C223.895,110.000 223.000,109.104 223.000,108.000 C223.000,108.000 223.000,105.000 223.000,105.000 C223.000,103.895 223.895,103.000 225.000,103.000 C225.000,103.000 229.000,103.000 229.000,103.000 C230.105,103.000 231.000,103.895 231.000,105.000 C231.000,105.000 231.000,108.000 231.000,108.000 C231.000,109.104 230.105,110.000 229.000,110.000 ZM219.000,110.000 C219.000,110.000 215.000,110.000 215.000,110.000 C213.895,110.000 213.000,109.104 213.000,108.000 C213.000,108.000 213.000,105.000 213.000,105.000 C213.000,103.895 213.895,103.000 215.000,103.000 C215.000,103.000 219.000,103.000 219.000,103.000 C220.104,103.000 221.000,103.895 221.000,105.000 C221.000,105.000 221.000,108.000 221.000,108.000 C221.000,109.104 220.104,110.000 219.000,110.000 ZM209.000,110.000 C209.000,110.000 205.000,110.000 205.000,110.000 C203.895,110.000 203.000,109.104 203.000,108.000 C203.000,108.000 203.000,105.000 203.000,105.000 C203.000,103.895 203.895,103.000 205.000,103.000 C205.000,103.000 209.000,103.000 209.000,103.000 C210.105,103.000 211.000,103.895 211.000,105.000 C211.000,105.000 211.000,108.000 211.000,108.000 C211.000,109.104 210.105,110.000 209.000,110.000 ZM199.000,110.000 C199.000,110.000 195.000,110.000 195.000,110.000 C193.895,110.000 193.000,109.104 193.000,108.000 C193.000,108.000 193.000,105.000 193.000,105.000 C193.000,103.895 193.895,103.000 195.000,103.000 C195.000,103.000 199.000,103.000 199.000,103.000 C200.105,103.000 201.000,103.895 201.000,105.000 C201.000,105.000 201.000,108.000 201.000,108.000 C201.000,109.104 200.105,110.000 199.000,110.000 ZM189.000,110.000 C189.000,110.000 185.000,110.000 185.000,110.000 C183.895,110.000 183.000,109.104 183.000,108.000 C183.000,108.000 183.000,105.000 183.000,105.000 C183.000,103.895 183.895,103.000 185.000,103.000 C185.000,103.000 189.000,103.000 189.000,103.000 C190.104,103.000 191.000,103.895 191.000,105.000 C191.000,105.000 191.000,108.000 191.000,108.000 C191.000,109.104 190.104,110.000 189.000,110.000 ZM179.000,110.000 C179.000,110.000 175.000,110.000 175.000,110.000 C173.895,110.000 173.000,109.104 173.000,108.000 C173.000,108.000 173.000,105.000 173.000,105.000 C173.000,103.895 173.895,103.000 175.000,103.000 C175.000,103.000 179.000,103.000 179.000,103.000 C180.105,103.000 181.000,103.895 181.000,105.000 C181.000,105.000 181.000,108.000 181.000,108.000 C181.000,109.104 180.105,110.000 179.000,110.000 ZM169.000,110.000 C169.000,110.000 165.000,110.000 165.000,110.000 C163.895,110.000 163.000,109.104 163.000,108.000 C163.000,108.000 163.000,105.000 163.000,105.000 C163.000,103.895 163.895,103.000 165.000,103.000 C165.000,103.000 169.000,103.000 169.000,103.000 C170.105,103.000 171.000,103.895 171.000,105.000 C171.000,105.000 171.000,108.000 171.000,108.000 C171.000,109.104 170.105,110.000 169.000,110.000 ZM159.000,110.000 C159.000,110.000 154.000,110.000 154.000,110.000 C152.895,110.000 152.000,109.104 152.000,108.000 C152.000,108.000 152.000,105.000 152.000,105.000 C152.000,103.895 152.895,103.000 154.000,103.000 C154.000,103.000 159.000,103.000 159.000,103.000 C160.104,103.000 161.000,103.895 161.000,105.000 C161.000,105.000 161.000,108.000 161.000,108.000 C161.000,109.104 160.104,110.000 159.000,110.000 Z" id="path-8" class="cls-12" fill-rule="evenodd"/>
        <path d="M266.000,119.000 C266.000,119.000 251.000,119.000 251.000,119.000 C249.895,119.000 249.000,118.104 249.000,117.000 C249.000,117.000 249.000,114.000 249.000,114.000 C249.000,112.895 249.895,112.000 251.000,112.000 C251.000,112.000 266.000,112.000 266.000,112.000 C267.105,112.000 268.000,112.895 268.000,114.000 C268.000,114.000 268.000,117.000 268.000,117.000 C268.000,118.104 267.105,119.000 266.000,119.000 ZM244.000,119.000 C244.000,119.000 240.000,119.000 240.000,119.000 C238.895,119.000 238.000,118.104 238.000,117.000 C238.000,117.000 238.000,114.000 238.000,114.000 C238.000,112.895 238.895,112.000 240.000,112.000 C240.000,112.000 244.000,112.000 244.000,112.000 C245.105,112.000 246.000,112.895 246.000,114.000 C246.000,114.000 246.000,117.000 246.000,117.000 C246.000,118.104 245.105,119.000 244.000,119.000 ZM234.000,119.000 C234.000,119.000 230.000,119.000 230.000,119.000 C228.895,119.000 228.000,118.104 228.000,117.000 C228.000,117.000 228.000,114.000 228.000,114.000 C228.000,112.895 228.895,112.000 230.000,112.000 C230.000,112.000 234.000,112.000 234.000,112.000 C235.104,112.000 236.000,112.895 236.000,114.000 C236.000,114.000 236.000,117.000 236.000,117.000 C236.000,118.104 235.104,119.000 234.000,119.000 ZM224.000,119.000 C224.000,119.000 220.000,119.000 220.000,119.000 C218.895,119.000 218.000,118.104 218.000,117.000 C218.000,117.000 218.000,114.000 218.000,114.000 C218.000,112.895 218.895,112.000 220.000,112.000 C220.000,112.000 224.000,112.000 224.000,112.000 C225.105,112.000 226.000,112.895 226.000,114.000 C226.000,114.000 226.000,117.000 226.000,117.000 C226.000,118.104 225.105,119.000 224.000,119.000 ZM214.000,119.000 C214.000,119.000 210.000,119.000 210.000,119.000 C208.895,119.000 208.000,118.104 208.000,117.000 C208.000,117.000 208.000,114.000 208.000,114.000 C208.000,112.895 208.895,112.000 210.000,112.000 C210.000,112.000 214.000,112.000 214.000,112.000 C215.105,112.000 216.000,112.895 216.000,114.000 C216.000,114.000 216.000,117.000 216.000,117.000 C216.000,118.104 215.105,119.000 214.000,119.000 ZM204.000,119.000 C204.000,119.000 200.000,119.000 200.000,119.000 C198.895,119.000 198.000,118.104 198.000,117.000 C198.000,117.000 198.000,114.000 198.000,114.000 C198.000,112.895 198.895,112.000 200.000,112.000 C200.000,112.000 204.000,112.000 204.000,112.000 C205.104,112.000 206.000,112.895 206.000,114.000 C206.000,114.000 206.000,117.000 206.000,117.000 C206.000,118.104 205.104,119.000 204.000,119.000 ZM194.000,119.000 C194.000,119.000 190.000,119.000 190.000,119.000 C188.895,119.000 188.000,118.104 188.000,117.000 C188.000,117.000 188.000,114.000 188.000,114.000 C188.000,112.895 188.895,112.000 190.000,112.000 C190.000,112.000 194.000,112.000 194.000,112.000 C195.105,112.000 196.000,112.895 196.000,114.000 C196.000,114.000 196.000,117.000 196.000,117.000 C196.000,118.104 195.105,119.000 194.000,119.000 ZM184.000,119.000 C184.000,119.000 180.000,119.000 180.000,119.000 C178.895,119.000 178.000,118.104 178.000,117.000 C178.000,117.000 178.000,114.000 178.000,114.000 C178.000,112.895 178.895,112.000 180.000,112.000 C180.000,112.000 184.000,112.000 184.000,112.000 C185.105,112.000 186.000,112.895 186.000,114.000 C186.000,114.000 186.000,117.000 186.000,117.000 C186.000,118.104 185.105,119.000 184.000,119.000 ZM174.000,119.000 C174.000,119.000 170.000,119.000 170.000,119.000 C168.895,119.000 168.000,118.104 168.000,117.000 C168.000,117.000 168.000,114.000 168.000,114.000 C168.000,112.895 168.895,112.000 170.000,112.000 C170.000,112.000 174.000,112.000 174.000,112.000 C175.104,112.000 176.000,112.895 176.000,114.000 C176.000,114.000 176.000,117.000 176.000,117.000 C176.000,118.104 175.104,119.000 174.000,119.000 ZM164.000,119.000 C164.000,119.000 154.000,119.000 154.000,119.000 C152.895,119.000 152.000,118.104 152.000,117.000 C152.000,117.000 152.000,114.000 152.000,114.000 C152.000,112.895 152.895,112.000 154.000,112.000 C154.000,112.000 164.000,112.000 164.000,112.000 C165.105,112.000 166.000,112.895 166.000,114.000 C166.000,114.000 166.000,117.000 166.000,117.000 C166.000,118.104 165.105,119.000 164.000,119.000 Z" id="path-9" class="cls-12" fill-rule="evenodd"/>
        <path d="M265.000,128.000 C265.000,128.000 256.000,128.000 256.000,128.000 C254.895,128.000 254.000,127.104 254.000,126.000 C254.000,126.000 254.000,123.000 254.000,123.000 C254.000,121.895 254.895,121.000 256.000,121.000 C256.000,121.000 265.000,121.000 265.000,121.000 C266.104,121.000 267.000,121.895 267.000,123.000 C267.000,123.000 267.000,126.000 267.000,126.000 C267.000,127.104 266.104,128.000 265.000,128.000 ZM250.000,128.000 C250.000,128.000 246.000,128.000 246.000,128.000 C244.895,128.000 244.000,127.104 244.000,126.000 C244.000,126.000 244.000,123.000 244.000,123.000 C244.000,121.895 244.895,121.000 246.000,121.000 C246.000,121.000 250.000,121.000 250.000,121.000 C251.104,121.000 252.000,121.895 252.000,123.000 C252.000,123.000 252.000,126.000 252.000,126.000 C252.000,127.104 251.104,128.000 250.000,128.000 ZM240.000,128.000 C240.000,128.000 236.000,128.000 236.000,128.000 C234.895,128.000 234.000,127.104 234.000,126.000 C234.000,126.000 234.000,123.000 234.000,123.000 C234.000,121.895 234.895,121.000 236.000,121.000 C236.000,121.000 240.000,121.000 240.000,121.000 C241.105,121.000 242.000,121.895 242.000,123.000 C242.000,123.000 242.000,126.000 242.000,126.000 C242.000,127.104 241.105,128.000 240.000,128.000 ZM230.000,128.000 C230.000,128.000 226.000,128.000 226.000,128.000 C224.895,128.000 224.000,127.104 224.000,126.000 C224.000,126.000 224.000,123.000 224.000,123.000 C224.000,121.895 224.895,121.000 226.000,121.000 C226.000,121.000 230.000,121.000 230.000,121.000 C231.105,121.000 232.000,121.895 232.000,123.000 C232.000,123.000 232.000,126.000 232.000,126.000 C232.000,127.104 231.105,128.000 230.000,128.000 ZM220.000,128.000 C220.000,128.000 216.000,128.000 216.000,128.000 C214.895,128.000 214.000,127.104 214.000,126.000 C214.000,126.000 214.000,123.000 214.000,123.000 C214.000,121.895 214.895,121.000 216.000,121.000 C216.000,121.000 220.000,121.000 220.000,121.000 C221.104,121.000 222.000,121.895 222.000,123.000 C222.000,123.000 222.000,126.000 222.000,126.000 C222.000,127.104 221.104,128.000 220.000,128.000 ZM210.000,128.000 C210.000,128.000 206.000,128.000 206.000,128.000 C204.895,128.000 204.000,127.104 204.000,126.000 C204.000,126.000 204.000,123.000 204.000,123.000 C204.000,121.895 204.895,121.000 206.000,121.000 C206.000,121.000 210.000,121.000 210.000,121.000 C211.105,121.000 212.000,121.895 212.000,123.000 C212.000,123.000 212.000,126.000 212.000,126.000 C212.000,127.104 211.105,128.000 210.000,128.000 ZM200.000,128.000 C200.000,128.000 196.000,128.000 196.000,128.000 C194.895,128.000 194.000,127.104 194.000,126.000 C194.000,126.000 194.000,123.000 194.000,123.000 C194.000,121.895 194.895,121.000 196.000,121.000 C196.000,121.000 200.000,121.000 200.000,121.000 C201.105,121.000 202.000,121.895 202.000,123.000 C202.000,123.000 202.000,126.000 202.000,126.000 C202.000,127.104 201.105,128.000 200.000,128.000 ZM190.000,128.000 C190.000,128.000 186.000,128.000 186.000,128.000 C184.895,128.000 184.000,127.104 184.000,126.000 C184.000,126.000 184.000,123.000 184.000,123.000 C184.000,121.895 184.895,121.000 186.000,121.000 C186.000,121.000 190.000,121.000 190.000,121.000 C191.104,121.000 192.000,121.895 192.000,123.000 C192.000,123.000 192.000,126.000 192.000,126.000 C192.000,127.104 191.104,128.000 190.000,128.000 ZM180.000,128.000 C180.000,128.000 176.000,128.000 176.000,128.000 C174.895,128.000 174.000,127.104 174.000,126.000 C174.000,126.000 174.000,123.000 174.000,123.000 C174.000,121.895 174.895,121.000 176.000,121.000 C176.000,121.000 180.000,121.000 180.000,121.000 C181.105,121.000 182.000,121.895 182.000,123.000 C182.000,123.000 182.000,126.000 182.000,126.000 C182.000,127.104 181.105,128.000 180.000,128.000 ZM170.000,128.000 C170.000,128.000 154.000,128.000 154.000,128.000 C152.895,128.000 152.000,127.104 152.000,126.000 C152.000,126.000 152.000,123.000 152.000,123.000 C152.000,121.895 152.895,121.000 154.000,121.000 C154.000,121.000 170.000,121.000 170.000,121.000 C171.105,121.000 172.000,121.895 172.000,123.000 C172.000,123.000 172.000,126.000 172.000,126.000 C172.000,127.104 171.105,128.000 170.000,128.000 Z" id="path-10" class="cls-12" fill-rule="evenodd"/>
        <path d="M265.000,137.000 C265.000,137.000 262.000,137.000 262.000,137.000 C261.448,137.000 261.000,136.552 261.000,136.000 C261.000,136.000 261.000,135.000 261.000,135.000 C261.000,134.447 261.448,134.000 262.000,134.000 C262.000,134.000 265.000,134.000 265.000,134.000 C265.552,134.000 266.000,134.447 266.000,135.000 C266.000,135.000 266.000,136.000 266.000,136.000 C266.000,136.552 265.552,137.000 265.000,137.000 ZM258.000,133.000 C257.448,133.000 257.000,132.552 257.000,132.000 C257.000,132.000 257.000,131.000 257.000,131.000 C257.000,130.448 257.448,130.000 258.000,130.000 C258.000,130.000 261.000,130.000 261.000,130.000 C261.552,130.000 262.000,130.448 262.000,131.000 C262.000,131.000 262.000,132.000 262.000,132.000 C262.000,132.552 261.552,133.000 261.000,133.000 C261.000,133.000 258.000,133.000 258.000,133.000 ZM258.000,135.000 C258.000,135.000 258.000,136.000 258.000,136.000 C258.000,136.552 257.552,137.000 257.000,137.000 C257.000,137.000 254.000,137.000 254.000,137.000 C253.448,137.000 253.000,136.552 253.000,136.000 C253.000,136.000 253.000,135.000 253.000,135.000 C253.000,134.447 253.448,134.000 254.000,134.000 C254.000,134.000 257.000,134.000 257.000,134.000 C257.552,134.000 258.000,134.447 258.000,135.000 ZM248.000,137.000 C248.000,137.000 244.000,137.000 244.000,137.000 C242.895,137.000 242.000,136.104 242.000,135.000 C242.000,135.000 242.000,132.000 242.000,132.000 C242.000,130.895 242.895,130.000 244.000,130.000 C244.000,130.000 248.000,130.000 248.000,130.000 C249.104,130.000 250.000,130.895 250.000,132.000 C250.000,132.000 250.000,135.000 250.000,135.000 C250.000,136.104 249.104,137.000 248.000,137.000 ZM238.000,137.000 C238.000,137.000 234.000,137.000 234.000,137.000 C232.895,137.000 232.000,136.104 232.000,135.000 C232.000,135.000 232.000,132.000 232.000,132.000 C232.000,130.895 232.895,130.000 234.000,130.000 C234.000,130.000 238.000,130.000 238.000,130.000 C239.105,130.000 240.000,130.895 240.000,132.000 C240.000,132.000 240.000,135.000 240.000,135.000 C240.000,136.104 239.105,137.000 238.000,137.000 ZM228.000,137.000 C228.000,137.000 194.000,137.000 194.000,137.000 C192.895,137.000 192.000,136.104 192.000,135.000 C192.000,135.000 192.000,132.000 192.000,132.000 C192.000,130.895 192.895,130.000 194.000,130.000 C194.000,130.000 228.000,130.000 228.000,130.000 C229.104,130.000 230.000,130.895 230.000,132.000 C230.000,132.000 230.000,135.000 230.000,135.000 C230.000,136.104 229.104,137.000 228.000,137.000 ZM188.000,137.000 C188.000,137.000 184.000,137.000 184.000,137.000 C182.895,137.000 182.000,136.104 182.000,135.000 C182.000,135.000 182.000,132.000 182.000,132.000 C182.000,130.895 182.895,130.000 184.000,130.000 C184.000,130.000 188.000,130.000 188.000,130.000 C189.104,130.000 190.000,130.895 190.000,132.000 C190.000,132.000 190.000,135.000 190.000,135.000 C190.000,136.104 189.104,137.000 188.000,137.000 ZM178.000,137.000 C178.000,137.000 174.000,137.000 174.000,137.000 C172.895,137.000 172.000,136.104 172.000,135.000 C172.000,135.000 172.000,132.000 172.000,132.000 C172.000,130.895 172.895,130.000 174.000,130.000 C174.000,130.000 178.000,130.000 178.000,130.000 C179.105,130.000 180.000,130.895 180.000,132.000 C180.000,132.000 180.000,135.000 180.000,135.000 C180.000,136.104 179.105,137.000 178.000,137.000 ZM168.000,137.000 C168.000,137.000 164.000,137.000 164.000,137.000 C162.895,137.000 162.000,136.104 162.000,135.000 C162.000,135.000 162.000,132.000 162.000,132.000 C162.000,130.895 162.895,130.000 164.000,130.000 C164.000,130.000 168.000,130.000 168.000,130.000 C169.104,130.000 170.000,130.895 170.000,132.000 C170.000,132.000 170.000,135.000 170.000,135.000 C170.000,136.104 169.104,137.000 168.000,137.000 ZM158.000,137.000 C158.000,137.000 154.000,137.000 154.000,137.000 C152.895,137.000 152.000,136.104 152.000,135.000 C152.000,135.000 152.000,132.000 152.000,132.000 C152.000,130.895 152.895,130.000 154.000,130.000 C154.000,130.000 158.000,130.000 158.000,130.000 C159.104,130.000 160.000,130.895 160.000,132.000 C160.000,132.000 160.000,135.000 160.000,135.000 C160.000,136.104 159.104,137.000 158.000,137.000 Z" id="path-11" class="cls-12" fill-rule="evenodd"/>
      </g>
      <g id="app">
        <rect id="rect-3" class="cls-12" x="151" y="16" width="118" height="8"/>
        <rect id="rect-4" class="cls-22" x="151" y="29" width="40" height="41"/>
        <rect id="rect-5" class="cls-22" x="195" y="29" width="74" height="18"/>
        <rect id="rect-6" class="cls-22" x="195" y="52" width="74" height="18"/>
      </g>
    </g>
    <g id="paper">
      <path d="M1.234,141.354 C1.234,141.354 41.886,130.524 41.886,130.524 C42.420,130.382 42.970,130.697 43.113,131.229 C43.113,131.229 58.155,187.046 58.155,187.046 C58.298,187.577 57.981,188.123 57.447,188.266 C57.447,188.266 16.795,199.096 16.795,199.096 C16.260,199.238 15.711,198.923 15.567,198.391 C15.567,198.391 0.525,142.575 0.525,142.575 C0.382,142.043 0.699,141.497 1.234,141.354 Z" id="path-12" class="cls-8" fill-rule="evenodd"/>
      <path d="M14.581,169.140 C14.581,169.140 14.062,167.216 14.062,167.216 C14.062,167.216 43.099,159.480 43.099,159.480 C43.099,159.480 43.618,161.405 43.618,161.405 C43.618,161.405 14.581,169.140 14.581,169.140 ZM13.025,163.366 C13.025,163.366 42.062,155.630 42.062,155.630 C42.062,155.630 42.581,157.555 42.581,157.555 C42.581,157.555 13.544,165.291 13.544,165.291 C13.544,165.291 13.025,163.366 13.025,163.366 ZM11.987,159.517 C11.987,159.517 41.025,151.781 41.025,151.781 C41.025,151.781 41.543,153.705 41.543,153.705 C41.543,153.705 12.506,161.442 12.506,161.442 C12.506,161.442 11.987,159.517 11.987,159.517 ZM10.950,155.668 C10.950,155.668 39.987,147.932 39.987,147.932 C39.987,147.932 40.506,149.856 40.506,149.856 C40.506,149.856 11.469,157.592 11.469,157.592 C11.469,157.592 10.950,155.668 10.950,155.668 Z" id="path-13" class="cls-12" fill-rule="evenodd"/>
    </g>
    <g id="paper-1">
      <path d="M61.365,150.758 C61.365,150.758 103.451,150.758 103.451,150.758 C104.004,150.758 104.453,151.204 104.453,151.755 C104.453,151.755 104.453,209.541 104.453,209.541 C104.453,210.091 104.004,210.537 103.451,210.537 C103.451,210.537 61.365,210.537 61.365,210.537 C60.811,210.537 60.363,210.091 60.363,209.541 C60.363,209.541 60.363,151.755 60.363,151.755 C60.363,151.204 60.811,150.758 61.365,150.758 Z" id="path-14" class="cls-8" fill-rule="evenodd"/>
      <path d="M66.877,172.144 C66.877,172.144 66.877,170.151 66.877,170.151 C66.877,170.151 96.938,170.151 96.938,170.151 C96.938,170.151 96.938,172.144 96.938,172.144 C96.938,172.144 66.877,172.144 66.877,172.144 ZM66.877,166.166 C66.877,166.166 96.938,166.166 96.938,166.166 C96.938,166.166 96.938,168.159 96.938,168.159 C96.938,168.159 66.877,168.159 66.877,168.159 C66.877,168.159 66.877,166.166 66.877,166.166 ZM66.877,162.181 C66.877,162.181 96.938,162.181 96.938,162.181 C96.938,162.181 96.938,164.174 96.938,164.174 C96.938,164.174 66.877,164.174 66.877,164.174 C66.877,164.174 66.877,162.181 66.877,162.181 ZM66.877,158.195 C66.877,158.195 96.938,158.195 96.938,158.195 C96.938,158.195 96.938,160.188 96.938,160.188 C96.938,160.188 66.877,160.188 66.877,160.188 C66.877,160.188 66.877,158.195 66.877,158.195 Z" id="path-15" class="cls-12" fill-rule="evenodd"/>
      <path d="M67.377,186.592 C67.377,186.592 67.377,176.629 67.377,176.629 C67.377,176.629 97.438,176.629 97.438,176.629 C97.438,176.629 97.438,186.592 97.438,186.592 C97.438,186.592 67.377,186.592 67.377,186.592 Z" id="path-16" class="cls-13" fill-rule="evenodd"/>
      <path d="M67.377,200.592 C67.377,200.592 67.377,190.629 67.377,190.629 C67.377,190.629 97.438,190.629 97.438,190.629 C97.438,190.629 97.438,200.592 97.438,200.592 C97.438,200.592 67.377,200.592 67.377,200.592 Z" id="path-17" class="cls-13" fill-rule="evenodd"/>
    </g>
    <g id="paper-2">
      <path d="M31.344,170.722 C31.344,170.722 73.430,170.722 73.430,170.722 C73.984,170.722 74.432,171.168 74.432,171.718 C74.432,171.718 74.432,229.503 74.432,229.503 C74.432,230.054 73.984,230.500 73.430,230.500 C73.430,230.500 31.344,230.500 31.344,230.500 C30.791,230.500 30.342,230.054 30.342,229.503 C30.342,229.503 30.342,171.718 30.342,171.718 C30.342,171.168 30.791,170.722 31.344,170.722 Z" id="path-18" class="cls-8" fill-rule="evenodd"/>
      <path d="M58.902,183.174 C58.902,183.174 58.902,178.192 58.902,178.192 C58.902,178.192 66.918,178.192 66.918,178.192 C66.918,178.192 66.918,183.174 66.918,183.174 C66.918,183.174 58.902,183.174 58.902,183.174 ZM47.879,178.192 C47.879,178.192 55.896,178.192 55.896,178.192 C55.896,178.192 55.896,183.174 55.896,183.174 C55.896,183.174 47.879,183.174 47.879,183.174 C47.879,183.174 47.879,178.192 47.879,178.192 ZM36.857,178.192 C36.857,178.192 44.873,178.192 44.873,178.192 C44.873,178.192 44.873,183.174 44.873,183.174 C44.873,183.174 36.857,183.174 36.857,183.174 C36.857,183.174 36.857,178.192 36.857,178.192 Z" id="path-19" class="cls-35" fill-rule="evenodd"/>
      <path d="M36.857,201.107 C36.857,201.107 36.857,199.114 36.857,199.114 C36.857,199.114 66.918,199.114 66.918,199.114 C66.918,199.114 66.918,201.107 66.918,201.107 C66.918,201.107 36.857,201.107 36.857,201.107 ZM36.857,195.129 C36.857,195.129 66.918,195.129 66.918,195.129 C66.918,195.129 66.918,197.122 66.918,197.122 C66.918,197.122 36.857,197.122 36.857,197.122 C36.857,197.122 36.857,195.129 36.857,195.129 ZM36.857,191.144 C36.857,191.144 66.918,191.144 66.918,191.144 C66.918,191.144 66.918,193.137 66.918,193.137 C66.918,193.137 36.857,193.137 36.857,193.137 C36.857,193.137 36.857,191.144 36.857,191.144 ZM36.857,187.158 C36.857,187.158 66.918,187.158 66.918,187.158 C66.918,187.158 66.918,189.151 66.918,189.151 C66.918,189.151 36.857,189.151 36.857,189.151 C36.857,189.151 36.857,187.158 36.857,187.158 Z" id="path-20" class="cls-12" fill-rule="evenodd"/>
      <path d="M36.857,215.055 C36.857,215.055 36.857,205.092 36.857,205.092 C36.857,205.092 66.918,205.092 66.918,205.092 C66.918,205.092 66.918,215.055 66.918,215.055 C66.918,215.055 36.857,215.055 36.857,215.055 Z" id="path-21" class="cls-37" fill-rule="evenodd"/>
    </g>
    <g id="pen">
      <path d="M290.992,112.225 C290.992,112.225 295.000,112.225 295.000,112.225 C295.000,112.225 295.000,152.077 295.000,152.077 C295.000,152.077 290.992,152.077 290.992,152.077 C290.992,152.077 290.992,112.225 290.992,112.225 Z" id="path-22" class="cls-35" fill-rule="evenodd"/>
      <path d="M290.992,153.074 C290.992,153.074 295.000,153.074 295.000,153.074 C295.000,153.074 292.996,159.052 292.996,159.052 C292.996,159.052 290.992,153.074 290.992,153.074 Z" id="path-23" class="cls-40" fill-rule="evenodd"/>
    </g>
    <g id="iphone">
      <path d="M333.500,65.500 C333.500,65.500 356.500,65.500 356.500,65.500 C357.992,65.500 359.500,66.994 359.500,68.500 C359.500,68.500 359.500,114.500 359.500,114.500 C359.500,116.006 357.992,117.500 356.500,117.500 C356.500,117.500 333.500,117.500 333.500,117.500 C332.008,117.500 330.490,116.276 330.490,114.770 C330.490,114.770 330.500,68.500 330.500,68.500 C330.500,66.994 332.008,65.500 333.500,65.500 Z" id="path-24" class="cls-8" fill-rule="evenodd"/>
      <path d="M333.500,70.500 C333.500,70.500 356.500,70.500 356.500,70.500 C356.997,70.500 357.500,70.998 357.500,71.500 C357.500,71.500 357.500,109.500 357.500,109.500 C357.500,110.002 356.997,110.500 356.500,110.500 C356.500,110.500 333.500,110.500 333.500,110.500 C333.003,110.500 332.500,110.002 332.500,109.500 C332.500,109.500 332.500,71.500 332.500,71.500 C332.500,70.998 333.003,70.500 333.500,70.500 Z" id="path-25" class="cls-8" fill-rule="evenodd"/>
      <circle id="circle-2" class="cls-5" cx="345" cy="114" r="2"/>
      <path d="M347.877,67.729 C348.251,67.729 348.553,68.035 348.553,68.411 C348.553,68.787 348.251,69.093 347.877,69.093 C347.504,69.093 347.202,68.787 347.202,68.411 C347.202,68.035 347.504,67.729 347.877,67.729 Z" id="path-26" class="cls-5" fill-rule="evenodd"/>
      <path d="M342.473,67.729 C342.473,67.729 344.725,67.729 344.725,67.729 C345.098,67.729 345.401,68.035 345.401,68.411 C345.401,68.787 345.098,69.093 344.725,69.093 C344.725,69.093 342.473,69.093 342.473,69.093 C342.100,69.093 341.798,68.787 341.798,68.411 C341.798,68.035 342.100,67.729 342.473,67.729 Z" id="path-27" class="cls-5" fill-rule="evenodd"/>
      <g id="app-1">
        <rect id="rect-7" class="cls-12" x="335" y="74" width="19" height="7"/>
        <rect id="rect-8" class="cls-12" x="335" y="83" width="19" height="7"/>
        <rect id="rect-9" class="cls-22" x="335" y="92" width="19" height="7"/>
      </g>
    </g>
    <g id="coffee">
      <circle id="circle-3" class="cls-8" cx="335" cy="196" r="24"/>
      <rect id="rect-10" class="cls-5" x="308" y="195" width="14" height="4"/>
      <circle id="circle-4" class="cls-8" cx="335" cy="196" r="14"/>
      <circle id="circle-5" class="cls-55" cx="335" cy="196" r="11"/>
    </g>
    <g id="book">
      <path d="M2.000,30.000 C2.000,30.000 38.000,30.000 38.000,30.000 C40.761,30.000 43.000,32.239 43.000,35.000 C43.000,35.000 43.000,81.000 43.000,81.000 C43.000,83.762 40.761,86.000 38.000,86.000 C38.000,86.000 2.000,86.000 2.000,86.000 C0.895,86.000 -0.000,85.105 -0.000,84.000 C-0.000,84.000 -0.000,32.000 -0.000,32.000 C-0.000,30.896 0.895,30.000 2.000,30.000 Z" id="path-28" class="cls-12" fill-rule="evenodd"/>
      <rect id="rect-11" class="cls-37" x="5" y="31" width="2" height="56"/>
      <text class="cls-59" x="5px" y="43px"><tspan x="25px" class="cls-60">ux</tspan></text>
    </g>
  </g>
</svg>
