<svg width="117" height="121" viewBox="0 0 117 121" xmlns="http://www.w3.org/2000/svg"><g fill="none" fill-rule="evenodd"><path d="M30.414 3.434H83.78l24.903 26.09v78.27h-78.27V3.434z" fill="#FFF"/><path d="M25.67 110.165V.8h56.51l26.503 26.352v83.013H25.67z" fill="#EDEDED"/><path d="M82.42 1.062v26.15h26.263L82.42 1.06z" fill="#E0E0E0"/><path fill="#FFAC15" d="M43.933 25.86h16.603v2.48H43.933zm0 13.27H90.42v2.48H43.933zm0 9.92H90.42v2.48H43.933zm0 9.918h33.205v2.48H43.933z"/><path fill="#DDD" d="M43.933 69.437H90.42v2.48H43.933zm0 9.92H90.42v2.48H43.933zm0 9.917h46.382v2.48H43.933z"/><path d="M18.335 13.317H71.7l24.904 26.09v78.27h-78.27V13.317z" fill="#FFF"/><path d="M13.59 120.048V10.682h56.512l26.502 26.353v83.013H13.59z" fill="#FFF"/><path d="M70.34 10.945v26.15h26.264L70.34 10.945z" opacity=".8" fill="#F8F8F8"/><path fill="#FFAC15" d="M31.854 35.742h16.603v2.48H31.854zm0 13.272H78.34v2.48H31.855zm0 9.92H78.34v2.48H31.855zm0 9.916H65.06v2.48H31.853z"/><path fill="#DDD" d="M31.854 79.32H78.34v2.48H31.855zm0 9.92H78.34v2.48H31.855zm0 9.917h46.382v2.48H31.854z"/><path d="M0 82.007C0 81.45.446 81 1 81h19.333a1 1 0 0 1 1 1.007v15.32a1.01 1.01 0 0 1-1.005 1.006h-1.613V103c0 1.104-.63 1.373-1.42.586l-5.278-5.253H1.004A1.002 1.002 0 0 1 0 97.326v-15.32zm109.333-40c0-.556-.445-1.007-1-1.007H89a1 1 0 0 0-1 1.007v15.32a1.01 1.01 0 0 0 1.005 1.006h1.614V63c0 1.104.63 1.373 1.42.586l5.27-5.253h11.01c.554 0 1.003-.446 1.003-1.007v-15.32zM117 87c0-.553-.445-1-1-1h-14a1 1 0 0 0-1 1v11c0 .553.456 1 1.005 1h.96v2.995c0 1.107.635 1.372 1.412.6l3.61-3.595H116a1 1 0 0 0 1-1V87z" fill="#95CEFE"/></g></svg>