<svg id="Team" xmlns="http://www.w3.org/2000/svg" viewBox="0 0 411.9 368.1"><style>.st0{fill:#15B0BF;} .st1{fill:#FFFFFF;} .st2{fill:#F1F2F2;} .st3{fill:#E6E7E8;} .st4{fill:#F4DAA6;} .st5{fill:#EBCC93;} .st6{fill:#E5B709;} .st7{fill:#FFE9BA;} .st8{fill:#404040;} .st9{fill-rule:evenodd;clip-rule:evenodd;fill:#5297C7;} .st10{fill:#5297C7;} .st11{fill:#868789;} .st12{fill-rule:evenodd;clip-rule:evenodd;fill:#868789;} .st13{fill:#E99100;} .st14{fill:#99CC33;} .st15{fill:#FFD88A;} .st16{fill:#D12229;} .st17{opacity:0.3;} .st18{fill-rule:evenodd;clip-rule:evenodd;fill:#99CC33;} .st19{fill-rule:evenodd;clip-rule:evenodd;fill:#6A8723;} .st20{fill-rule:evenodd;clip-rule:evenodd;fill:#FFFFFF;} .st21{fill:#6A8723;} .st22{fill:#FDC00D;} .st23{opacity:0.2;}</style><path class="st0" d="M209 366.6v-1.1c1.5 0 3-.1 4.5-.1v1.1c-1.5.1-3 .1-4.5.1zm-9-.1c-1.5-.1-3-.1-4.5-.2l.1-1.1c1.5.1 3 .2 4.5.2l-.1 1.1zm22.4-.6l-.1-1.1c1.5-.1 3-.3 4.4-.5l.1 1.1c-1.4.2-2.9.4-4.4.5zm-35.9-.4l-4.5-.6.2-1.1c1.5.2 2.9.4 4.4.6l-.1 1.1zm49.3-1.4l-.2-1.1c1.5-.3 2.9-.5 4.4-.8l.2 1.1c-1.5.3-3 .6-4.4.8zm-62.6-.8c-1.5-.3-2.9-.6-4.4-1l.3-1.1c1.4.3 2.9.6 4.4.9l-.3 1.2zm75.7-2l-.3-1.1c1.4-.4 2.9-.8 4.3-1.2l.3 1.1c-1.4.4-2.8.8-4.3 1.2zm-88.7-1.2c-1.4-.4-2.9-.9-4.3-1.3l.3-1.1c1.4.4 2.8.9 4.3 1.3l-.3 1.1zm101.6-2.8l-.4-1.1 4.2-1.5.4 1c-1.4.6-2.8 1.1-4.2 1.6zm-114.4-1.5c-1.4-.5-2.8-1.1-4.2-1.7l.4-1c1.4.6 2.8 1.1 4.2 1.6l-.4 1.1zm126.9-3.4l-.5-1c1.4-.6 2.7-1.2 4-1.9l.5 1c-1.2.7-2.6 1.3-4 1.9zm-139.4-1.8c-1.4-.6-2.7-1.3-4-2l.5-1c1.3.7 2.7 1.3 4 2l-.5 1zm151.5-4.2l-.5-1c1.3-.7 2.6-1.4 3.9-2.2l.6 1c-1.4.8-2.7 1.5-4 2.2zM123 344.3c-1.3-.8-2.6-1.5-3.9-2.3l.6-1c1.3.8 2.5 1.5 3.8 2.3l-.5 1zm175-4.8l-.6-.9c1.2-.8 2.5-1.6 3.7-2.5l.6.9c-1.3.9-2.5 1.7-3.7 2.5zm-186.4-2.4c-1.2-.9-2.5-1.7-3.7-2.6l.7-.9c1.2.9 2.4 1.7 3.6 2.6l-.6.9zm197.3-5.4l-.7-.9c1.2-.9 2.3-1.8 3.5-2.8l.7.9c-1.1 1-2.3 1.9-3.5 2.8zM100.8 329c-1.2-.9-2.3-1.9-3.4-2.9l.7-.8c1.1 1 2.3 1.9 3.4 2.9l-.7.8zm218.4-5.9l-.8-.8 3.3-3 .8.8-3.3 3zM90.7 320c-1.1-1-2.1-2.1-3.2-3.2l.8-.8c1 1.1 2.1 2.1 3.2 3.1l-.8.9zm238.1-6.4l-.8-.8 3-3.3.8.7c-.9 1.2-1.9 2.3-3 3.4zm-247.4-3.3c-1-1.1-2-2.3-2.9-3.4l.9-.7c1 1.1 1.9 2.3 2.9 3.4l-.9.7zm256.2-6.9l-.9-.7c.9-1.2 1.8-2.3 2.7-3.5l.9.7c-.8 1.2-1.7 2.3-2.7 3.5zm-264.7-3.5l-2.7-3.6.9-.6c.9 1.2 1.7 2.4 2.6 3.6l-.8.6zm272.7-7.4l-.9-.6c.8-1.2 1.6-2.5 2.4-3.7l.9.6c-.7 1.2-1.6 2.5-2.4 3.7zm-280.4-3.7c-.8-1.3-1.6-2.5-2.4-3.8l1-.6c.8 1.3 1.5 2.5 2.3 3.8l-.9.6zm287.5-7.7l-1-.5 2.1-3.9 1 .5c-.7 1.2-1.4 2.5-2.1 3.9zm-294.3-3.9c-.7-1.3-1.4-2.7-2-4l1-.5c.7 1.3 1.3 2.7 2 4l-1 .5zm300.4-8.2l-1-.5c.6-1.4 1.2-2.7 1.8-4.1l1 .4c-.6 1.5-1.2 2.9-1.8 4.2zm-306.1-4c-.6-1.4-1.2-2.8-1.7-4.1l1-.4c.5 1.4 1.1 2.8 1.7 4.1l-1 .4zm311.2-8.5l-1.1-.4 1.5-4.2 1.1.4-1.5 4.2zm-316-4c-.5-1.4-.9-2.8-1.4-4.3l1.1-.3c.4 1.4.9 2.8 1.4 4.3l-1.1.3zm320.1-8.8l-1.1-.3c.4-1.4.8-2.9 1.1-4.3l1.1.3c-.3 1.4-.7 2.8-1.1 4.3zm-323.9-4.2c-.4-1.5-.7-2.9-1-4.4l1.1-.2c.3 1.5.7 2.9 1 4.3l-1.1.3zm327-8.9l-1.1-.2c.3-1.5.5-2.9.8-4.4l1.1.2c-.3 1.4-.6 2.9-.8 4.4zm-329.7-4.3c-.2-1.5-.5-3-.7-4.4l1.1-.1c.2 1.5.4 2.9.7 4.4l-1.1.1zm331.6-9.1l-1.1-.1c.2-1.5.3-3 .4-4.4l1.1.1c-.1 1.4-.2 2.9-.4 4.4zm-333.2-4.3l-.3-4.5 1.1-.1.3 4.5-1.1.1zm334.1-9.1h-1.1c0-1.5.1-3 .1-4.5v-.4h1.1v.4c0 1.5 0 3-.1 4.5zm-333.5-4.3h-1.1v-.2c0-1.4 0-2.9.1-4.3h1.1c0 1.4-.1 2.9-.1 4.3v.2zm332.2-9.5l-.3-4.5 1.1-.1.3 4.5-1.1.1zm-331.7-3.9l-1.1-.1c.1-1.5.3-3 .4-4.5l1.1.1c-.2 1.5-.3 3-.4 4.5zm330.4-9.4c-.2-1.5-.4-2.9-.7-4.4l1.1-.2c.2 1.5.5 3 .7 4.4l-1.1.2zm-328.8-3.9l-1.1-.2c.2-1.5.5-3 .8-4.4l1.1.2c-.3 1.5-.6 2.9-.8 4.4zm326.5-9.3c-.3-1.5-.7-2.9-1-4.3l1.1-.3c.4 1.5.7 2.9 1 4.4l-1.1.2zm-323.9-3.8l-1.1-.3c.4-1.5.7-2.9 1.1-4.3l1.1.3c-.3 1.4-.7 2.8-1.1 4.3zm320.5-9.1c-.4-1.4-.9-2.8-1.4-4.2l1.1-.4c.5 1.4.9 2.8 1.4 4.3l-1.1.3zm-316.8-3.8l-1.1-.4c.5-1.4 1-2.8 1.5-4.3l1.1.4c-.5 1.5-1 2.9-1.5 4.3zm312.4-8.9c-.5-1.4-1.1-2.8-1.7-4.1l1-.4c.6 1.4 1.2 2.7 1.7 4.1l-1 .4zm-307.6-3.6l-1-.4c.6-1.4 1.2-2.8 1.8-4.1l1 .5c-.6 1.2-1.2 2.6-1.8 4zm302.1-8.6c-.7-1.3-1.3-2.7-2-4l1-.5c.7 1.3 1.4 2.6 2 4l-1 .5zm-296.4-3.5l-1-.5c.7-1.3 1.4-2.6 2.1-4l1 .5c-.7 1.3-1.4 2.6-2.1 4zm290-8.2c-.8-1.3-1.5-2.5-2.3-3.8l.9-.6c.8 1.3 1.6 2.5 2.4 3.8l-1 .6zM66 110.6l-.9-.6c.8-1.3 1.6-2.5 2.5-3.8l.9.6c-.9 1.2-1.7 2.5-2.5 3.8zm276-7.8c-.9-1.2-1.7-2.4-2.6-3.6l.9-.7 2.7 3.6-1 .7zM73.6 99.5l-.9-.7 2.7-3.6.9.7c-.9 1.3-1.8 2.4-2.7 3.6zm260.2-7.2c-1-1.1-1.9-2.3-2.9-3.4l.8-.7c1 1.1 2 2.3 2.9 3.4l-.8.7zM82.1 89.2l-.8-.7 3-3.3.8.8c-1 .9-2 2-3 3.2zm242.7-6.8c-1-1.1-2.1-2.1-3.2-3.1l.8-.8c1.1 1 2.1 2.1 3.2 3.2l-.8.7zM91.4 79.5l-.8-.8c1.1-1 2.2-2.1 3.3-3.1l.8.8c-1.2 1-2.3 2.1-3.3 3.1zM315 73.2c-1.1-1-2.3-1.9-3.4-2.9l.7-.9c1.2.9 2.3 1.9 3.4 2.9l-.7.9zm-213.6-2.6l-.7-.9c1.2-.9 2.3-1.9 3.5-2.8l.7.9c-1.2.9-2.4 1.9-3.5 2.8zm203.1-5.7c-1.2-.9-2.4-1.7-3.6-2.6l.6-.9c1.2.9 2.5 1.7 3.7 2.6l-.7.9zm-192.4-2.3l-.6-.9c1.2-.9 2.5-1.7 3.7-2.5l.6.9c-1.3.8-2.5 1.6-3.7 2.5zm181.3-5.1c-1.3-.8-2.5-1.5-3.8-2.3l.6-1c1.3.7 2.6 1.5 3.9 2.3l-.7 1zm-170.1-2.1l-.6-1c1.3-.7 2.6-1.5 3.9-2.2l.5 1c-1.2.7-2.5 1.4-3.8 2.2zm158.4-4.5c-1.3-.7-2.7-1.3-4-2l.5-1c1.4.6 2.7 1.3 4 2l-.5 1zm-146.5-1.7l-.5-1c1.3-.6 2.7-1.3 4.1-1.9l.5 1c-1.5.6-2.8 1.2-4.1 1.9zm134.3-3.8c-1.4-.6-2.8-1.1-4.2-1.6l.4-1c1.4.5 2.8 1.1 4.2 1.6l-.4 1zm-122.1-1.5l-.4-1 4.2-1.5.4 1.1c-1.4.4-2.8.9-4.2 1.4zm109.5-3.1c-1.4-.4-2.8-.9-4.3-1.3l.3-1.1c1.4.4 2.9.8 4.3 1.3l-.3 1.1zm-96.8-1.2l-.3-1.1c1.4-.4 2.9-.8 4.3-1.2l.3 1.1c-1.4.4-2.9.8-4.3 1.2zm83.9-2.3c-1.4-.3-2.9-.6-4.4-.9l.2-1.1c1.5.3 2.9.6 4.4.9l-.2 1.1zm-70.9-.9l-.2-1.1c1.5-.3 2.9-.6 4.4-.8l.2 1.1c-1.5.3-2.9.5-4.4.8zm57.7-1.6c-1.5-.2-2.9-.4-4.4-.6l.1-1.1 4.5.6-.2 1.1zm-44.5-.5l-.1-1.1c1.5-.2 3-.3 4.5-.5l.1 1.1c-1.5.1-3 .3-4.5.5zm31.2-.9c-1.5-.1-3-.2-4.5-.2v-1.1c1.5.1 3 .1 4.5.2v1.1zm-17.8-.2v-1.1c1.5-.1 3-.1 4.5-.1v1.1c-1.6 0-3.1 0-4.5.1z"/><path class="st1" d="M319.3 184.2h86.2v50.5h-86.2z"/><path class="st2" d="M308.4 330.4c-2-10.2-5.1-19.2-8.2-22.5-6.1-6.4-49-22-58.3-24.9-5.4-1.7-8.7-7.9-10-14.8-1.3-7.1-1.1-22.2-1.1-22.2l-24.2 9.4-24.2-9.4s.1 15.1-1.1 22.2c-1.2 7-4.6 13.1-10 14.8-9.3 2.9-52.2 18.5-58.3 24.9-3.2 3.3-6.2 12.1-8.2 22.3 26.2 22.7 60.1 36.8 97.2 37.9 1.5 0 3 .1 4.5.1 1.7 0 3.5 0 5.2-.1 37-1.3 70.6-15.2 96.7-37.7z"/><path class="st3" d="M211.8 368c36.9-1.2 70.5-15.1 96.6-37.6-2-10.2-5.1-19.2-8.2-22.5-6.1-6.4-49-22-58.3-24.9-5.4-1.7-8.7-7.9-10-14.8-1.3-7.1-1.1-22.2-1.1-22.2l-24.2 9.4v112.8c1.7-.1 3.5-.2 5.2-.2z"/><path class="st4" d="M206.6 298.6c15.7 0 29.9-5.3 40.5-14-2.2-.8-4-1.4-5.2-1.7-5.4-1.7-8.7-7.9-10-14.8-1.3-7.1-1.1-22.2-1.1-22.2l-24.2 9.4-24.2-9.4s.1 15.1-1.1 22.2c-1.2 7-4.6 13.1-10 14.8-1.2.4-3 1-5.2 1.7 10.6 8.7 24.8 14 40.5 14z"/><path class="st5" d="M231.9 268.1c-1.3-7.1-1.1-22.2-1.1-22.2l-24.2 9.4-18.1-7.1-6.1 2.9s10.4 30.3 36.2 31.4c7.3.3 14.6 0 21.3-.6-4.3-2.4-6.9-7.8-8-13.8z"/><path class="st6" d="M242.3 112c-2.5-9.1-17.5-12.6-35.5-12.6-93 0-53.4 90.5-53.4 90.5 15.8 15.8 53.4-9 53.4-9s37.5 24.8 53.4 9c-.1 0 29.4-74-17.9-77.9z"/><path class="st7" d="M208.5 262.6c23.5-2.5 38.6-31.3 42.2-40.1 3.8-9.2 5.3-35.7 5.3-35.7-10.1-30.5-47.7-81-47.7-81l-1.4-.1-1.4.1s-64.5-.1-47.7 81c0 0 1.5 26.5 5.3 35.7 3.6 8.8 18.7 37.6 42.2 40.1 0 0 .8.1 1.7.1.6 0 1.5-.1 1.5-.1z"/><path class="st4" d="M208.5 262.6c23.5-2.5 38.6-31.3 42.2-40.1 3.8-9.2 5.3-35.7 5.3-35.7 14.2-81.2-47.7-81-47.7-81l-1.4-.1h-.2v157.1h.2c.7-.1 1.6-.2 1.6-.2z"/><path class="st7" d="M157.6 186.8s-3-8.1-7.4-8.1-6.7 7-6.7 15 5.3 13 8.7 14.5c3.4 1.5 8.2 5.2 9 8.4.7 3.1 4.4-27.3-3.6-29.8z"/><path class="st4" d="M255.9 186.8s3-8.1 7.4-8.1c4.5 0 6.7 7 6.7 15s-5.3 13-8.7 14.5c-3.4 1.5-8.2 5.2-9 8.4-.7 3.1-4.4-27.3 3.6-29.8z"/><path class="st6" d="M247 115.7c-13-12.9-40.5-12.9-40.5-12.9s-27.5 0-40.5 12.9-16.3 25.5-14.7 47.8c0 0 5 27.4 9.8 34.1 4.8 6.7-4.6-21.8 4.9-27.1 9.5-5.3 24.3-4.3 41-10.4 16.3-6 25.2-11.2 29.3-15.5 3.1 7.8 11 12.7 14.4 22.9 3.4 10.3-3.7 36.8 1 30.1 4.8-6.7 9.8-34.1 9.8-34.1 1.9-22.3-1.5-34.9-14.5-47.8z"/><path class="st8" d="M169.7 283.4c-11.8 3.9-50.8 18.3-56.7 24.4-3.2 3.3-6.2 12.1-8.2 22.3 26.2 22.7 60.1 36.8 97.2 37.9 1.5 0 3 .1 4.5.1v-13.5c.1 0-24.4-42.4-36.8-71.2zM308.4 330.4c-2-10.2-5.1-19.2-8.2-22.5-5.8-6.1-44.6-20.4-56.6-24.4-12.8 29.2-37 71.1-37 71.1v13.5c1.7 0 3.5 0 5.2-.1 36.9-1.2 70.5-15.1 96.6-37.6z"/><path class="st9" d="M407.8 242h-93.6c-2.3 0-4.1 1.8-4.1 4.1s1.8 4.1 4.1 4.1h93.6c2.3 0 4.1-1.8 4.1-4.1 0-2.2-1.8-4.1-4.1-4.1zM321.6 236.9h78.7c3.9 0 7-3.1 7-7v-45.4c0-3.9-3.1-7-7-7h-78.7c-3.9 0-7 3.1-7 7V230c.1 3.8 3.2 6.9 7 6.9zm.3-44.4c0-3.9 3.1-7 7-7h64.2c3.9 0 7 3.1 7 7v29.6c0 3.9-3.1 7-7 7h-64.2c-3.9 0-7-3.1-7-7v-29.6z"/><path class="st10" d="M366.3 201.6c-.8-.4-2.3-.8-3.6-.8-4.4 0-7.1 3.4-7.1 7.1 0 2.5 1.4 4 3.4 4 1.6 0 3-.8 3.9-2.3h.1c.2 1.6 1.2 2.3 2.6 2.3 3.3 0 5.8-2.8 5.8-7.2 0-5.1-3.8-8.8-9.2-8.8-6.9 0-11.4 5.4-11.4 11.6 0 6 4.4 9.6 9.5 9.6 2.2 0 3.7-.3 5.6-1.1 0 0 .5-.4.3-1.1-.2-.7-.8-.6-.8-.6-1.2.6-2.9 1-4.4 1-4.5 0-7.8-2.9-7.8-8 0-5.8 4.1-9.5 8.7-9.5 4.7 0 7.3 3.1 7.3 7 0 3.5-1.6 5.2-3 5.1-.9 0-1.1-.9-.8-2.6l.9-5.7zm-3.6 4.7c-.3 1.8-1.5 3.2-2.6 3.2-1 0-1.5-.7-1.5-1.9 0-2.3 1.6-4.3 3.6-4.3.4 0 .7.1.9.1l-.4 2.9z"/><path class="st11" d="M296.3 60l-1.2-1.2c-.1-.1-.1-.1-.2-.1.8-1.3 1.5-2.7 1.8-4.3h2c1.4 0 2.5-1.1 2.5-2.5s-1.1-2.5-2.5-2.5h-2c-.3-1.6-.9-3-1.8-4.3.1-.1.1-.1.2-.1l1.2-1.2c1-1 1-2.6 0-3.6s-2.6-1-3.6 0l-1.2 1.2c-.1.1-.1.1-.1.2-1.3-.9-2.7-1.5-4.3-1.8v-1.9c0-1.4-1.1-2.5-2.5-2.5s-2.5 1.1-2.5 2.5v1.8c-1.6.3-3.1.9-4.4 1.8 0 0 0-.1-.1-.1l-1.2-1.2c-1-1-2.6-1-3.6 0s-1 2.6 0 3.6L274 45h.1c-.9 1.3-1.5 2.8-1.8 4.4h-1.8c-1.4 0-2.5 1.1-2.5 2.5s1.1 2.5 2.5 2.5h1.8c.3 1.6 1 3.1 1.8 4.4h-.1l-1.2 1.2c-1 1-1 2.6 0 3.6s2.6 1 3.6 0l1.2-1.2s0-.1.1-.1c1.3.9 2.8 1.5 4.4 1.8v1.8c0 1.4 1.1 2.5 2.5 2.5s2.5-1.1 2.5-2.5v-1.7-.2c1.6-.3 3-1 4.3-1.8 0 .1.1.1.1.2l1.2 1.2c1 1 2.6 1 3.6 0 .9-1 1-2.6 0-3.6zm-11.9-.8c-4.1 0-7.4-3.3-7.4-7.4 0-4.1 3.3-7.4 7.4-7.4 4.1 0 7.4 3.3 7.4 7.4 0 4.1-3.3 7.4-7.4 7.4z"/><g><circle class="st11" cx="364.2" cy="154.2" r="2.2"/><path class="st11" d="M372.6 145.6c-5-4-11.9-4-16.9 0-.5.4-.4 1.2 0 1.7.5.5 1.2.4 1.7 0 3.9-3.1 9.6-3.1 13.5 0 .5.4 1.2.5 1.7 0 .4-.5.5-1.3 0-1.7z"/><path class="st11" d="M375.5 142.3c-3.2-2.6-7.1-4.1-11.3-4.1-4.1 0-8.1 1.5-11.3 4.1-.5.4-.4 1.2 0 1.7.5.5 1.2.4 1.7 0 5.6-4.5 13.8-4.5 19.3 0 .5.4 1.2.5 1.7 0 .3-.5.4-1.3-.1-1.7zM369.5 148.7c-3.1-2.3-7.5-2.3-10.6 0-.5.4-.8 1-.4 1.6.3.5 1.1.8 1.6.4 2.5-1.9 5.7-1.9 8.2 0 .5.4 1.3.1 1.6-.4.4-.6.1-1.2-.4-1.6z"/></g><g><path class="st11" d="M131 54.2c0-3.5-1.6-6.6-4.2-8.6l.8-1.4 3.3 2c1.5-2.4.7-5.6-1.7-7-2.4-1.5-5.6-.7-7 1.7l3.3 2-.8 1.4c-.9-.4-1.9-.7-3-.9v-.1c0-.9-.7-1.6-1.5-1.6s-1.5.7-1.5 1.6v.1c-1.1.1-2.1.5-3 .9l-.8-1.4 3.3-2c-1.5-2.4-4.6-3.2-7-1.7-2.4 1.5-3.2 4.6-1.7 7l3.3-2 .8 1.4c-2.6 2-4.2 5.1-4.2 8.6 0 4.8 3.1 8.8 7.3 10.3h-4.3c-.5 0-.9.4-.9.9s.4.9.9.9H128c.5 0 .9-.4.9-.9s-.4-.9-.9-.9h-4.3C128 63 131 59 131 54.2zM120.1 62c-4.3 0-7.8-3.5-7.8-7.8s3.5-7.8 7.8-7.8 7.8 3.5 7.8 7.8-3.5 7.8-7.8 7.8z"/><circle class="st11" cx="120.1" cy="54.2" r=".6"/><path class="st11" d="M120.4 53.1c.2.1.4 0 .4-.2l1.6-4.9c.1-.2 0-.4-.2-.4-.2-.1-.4 0-.4.2l-1.6 4.9c0 .2.1.3.2.4zM121.5 54.9c-.2-.2-.4-.1-.6 0-.2.2-.1.4 0 .6l2.2 2c.2.2.4.1.6 0 .2-.2.1-.4 0-.6l-2.2-2z"/></g><g><path class="st12" d="M61.3 252.7H39.4c-1.1 0-2 .9-2 2v2.4l12.9 7.8 12.9-7.4v-2.8c.1-1.1-.8-2-1.9-2z"/><path class="st12" d="M37.4 260.9v12.9c0 1.1.9 2 2 2h21.9c1.1 0 2-.9 2-2v-12.6l-12.9 7.4-13-7.7z"/></g><g><circle class="st6" cx="207.2" cy="33.9" r="33.9"/><path class="st13" d="M216 66.6c12.4-3.3 22-13.6 24.5-26.4l-25.6-25.6-8 24.9-4.7 3.3 2.9 2.9-2.6 1 2.2 2.2-2.2.5 2.3 2.3-2.3.7 2.8 2.8-.4.2L216 66.6z"/><path class="st14" d="M203.2 47.1h8c.6 0 1-.5 1-1 0-.6-.5-1-1-1h-8c-.6 0-1 .4-1 1s.4 1 1 1zM211.2 47.9h-8c-.6 0-1 .5-1 1 0 .6.5 1 1 1h8c.6 0 1-.4 1-1s-.4-1-1-1zM211.2 50.8h-8c-.6 0-1 .4-1 1s.5 1 1 1h8c.6 0 1-.4 1-1s-.4-1-1-1zM208.9 53.9h-3.5c-.5 0-.9.4-.9.9s.4.9.9.9h3.5c.5 0 .9-.4.9-.9s-.4-.9-.9-.9z"/><path class="st15" d="M207.1 12.1c-8.1 0-12.2 5.7-12.2 12.4 0 2.1 1.1 4.4 2.6 6.8 1.5 2.4 2.7 6.4 3.4 9.3.8 2.9 2.7 2.7 2.7 2.7h8.3c1.9 0 1.6-3.9 3.3-8 1.6-4.2 4.5-6.5 4.5-11.1-.2-4.7-4.5-12.1-12.6-12.1z"/><path class="st1" d="M194.8 24.5c0 2.1 1.1 4.4 2.6 6.8 1.5 2.4 2.7 6.4 3.4 9.3.8 2.9 2.7 2.7 2.7 2.7h3.6V12.1c-8.2 0-12.3 5.7-12.3 12.4z"/><g><path class="st8" d="M212.2 46.1c0-.6-.5-1-1-1H207v2h4.2c.6 0 1-.4 1-1zM211.2 47.9H207v2h4.2c.6 0 1-.4 1-1s-.4-1-1-1zM211.2 50.8H207v2h4.2c.6 0 1-.4 1-1s-.4-1-1-1zM208.9 53.9H207v1.8h1.9c.5 0 .9-.4.9-.9s-.4-.9-.9-.9z"/></g></g><g><circle class="st16" cx="325.1" cy="313.7" r="34.5"/><path class="st17" d="M303 319.7l28.1 27.9c14.8-2.6 26.3-14.5 28.2-29.5l-13.9-13.9-3.1 1.5-3.8-3.8-1.7 2.8-5.2 3.8.2.6-1.8 1.3h-.9l-2.7-2.7h-.4l-6.2-6.2-5.5 3.4-3.2-3.2c-.7.6-.4 2.9 0 4.7l-.5.1-4 3.9v.2l-3.9.5 3.6 3.6-.1 2-3.2 3z"/><path class="st1" d="M347.3 310.5l-1.2.1h-.2c-.3-1.1-.8-2.1-1.4-3l.1-.1.8-.9c.7-.7.6-1.9-.1-2.5-.7-.7-1.9-.6-2.5.1l-.8.9s0 .1-.1.1c-.9-.6-2-1-3.1-1.1v-.1l-.1-1.2c0-1-.9-1.7-1.9-1.7-1 0-1.7.9-1.7 1.9l.1 1.2v.1c-1.1.3-2.1.8-3 1.4l-.1-.1-.9-.8c-.7-.7-1.9-.6-2.5.1-.7.7-.6 1.9.1 2.5l.9.8h.1c-.6.9-1 2-1.1 3.1l-1.2.1c-1 0-1.7.9-1.7 1.9 0 1 .9 1.7 1.9 1.7l1.2-.1c.3 1.1.8 2.1 1.4 3h-.1l-.8.9c-.7.7-.6 1.9.1 2.5.7.7 1.9.6 2.5-.1l.8-.9v-.1c.9.6 2 .9 3.1 1.1v.1l.1 1.2c0 1 .9 1.7 1.9 1.7 1 0 1.7-.9 1.7-1.9l-.1-1.2v-.1c1.1-.3 2.1-.8 3-1.4l.1.1.9.8c.7.7 1.9.6 2.5-.1.7-.7.6-1.9-.1-2.5l-.9-.8s-.1-.1-.2-.1c.5-.9.9-2 1.1-3.1h.2l1.2-.1c1 0 1.7-.9 1.7-1.9.1-.7-.7-1.5-1.7-1.5zm-9.6 7.5c-2.9.1-5.3-2.1-5.4-4.9-.1-2.9 2.1-5.3 4.9-5.4 2.9-.1 5.3 2.1 5.4 4.9.2 2.8-2 5.2-4.9 5.4z"/><path class="st1" d="M325.8 315.6l-1.3-.5h-.2c.2-1.2.1-2.5-.2-3.7.1 0 .1 0 .2-.1l1.2-.6c1-.5 1.4-1.7 1-2.7-.5-1-1.7-1.4-2.7-1l-1.2.6c-.1 0-.1.1-.2.1-.8-1-1.7-1.8-2.7-2.5 0-.1.1-.1.1-.2l.5-1.3c.4-1-.2-2.2-1.2-2.6-1-.4-2.2.2-2.6 1.2l-.5 1.3v.2c-1.2-.2-2.5-.1-3.7.1v-.1l-.6-1.2c-.5-1-1.7-1.4-2.7-1-1 .5-1.4 1.7-1 2.7l.6 1.2s0 .1.1.1c-1 .8-1.9 1.7-2.5 2.8 0 0-.1 0-.1-.1l-1.3-.5c-1-.4-2.2.2-2.6 1.2-.4 1 .2 2.2 1.2 2.6l1.3.5h.1c-.2 1.2-.1 2.5.2 3.8h-.1l-1.2.6c-1 .5-1.4 1.7-1 2.7.5 1 1.7 1.4 2.7 1l1.2-.6c.8 1 1.7 1.9 2.8 2.5v.1l-.5 1.3c-.4 1 .2 2.2 1.2 2.6 1 .4 2.2-.2 2.6-1.2l.5-1.3v-.1c1.2.2 2.5.1 3.7-.2v.1l.6 1.2c.5 1 1.7 1.4 2.7 1 1-.5 1.4-1.7 1-2.7l-.6-1.2-.1-.1c1-.8 1.8-1.7 2.5-2.8.1 0 .1.1.1.1l1.3.5c1 .4 2.2-.2 2.6-1.2.4-1.1-.1-2.2-1.2-2.6zm-8.7 3.4c-2.9 1.4-6.4.1-7.8-2.8-1.4-2.9-.1-6.4 2.8-7.8 2.9-1.4 6.4-.1 7.8 2.8s.1 6.4-2.8 7.8z"/><path class="st1" d="M325.8 315.6l-1.3-.5h-.2c.2-1.2.1-2.5-.2-3.7.1 0 .1 0 .2-.1l1.2-.6c1-.5 1.4-1.7 1-2.7-.5-1-1.7-1.4-2.7-1l-1.2.6c-.1 0-.1.1-.2.1-.8-1-1.7-1.8-2.7-2.5 0-.1.1-.1.1-.2l.5-1.3c.4-1-.2-2.2-1.2-2.6-1-.4-2.2.2-2.6 1.2l-.5 1.3v.2c-.5-.1-.9-.1-1.4-.1v4c2.2 0 4.3 1.3 5.2 3.4 1.4 2.9.1 6.4-2.8 7.8-.8.4-1.6.5-2.4.6v4c.8 0 1.5-.1 2.3-.3v.1l.6 1.2c.5 1 1.7 1.4 2.7 1 1-.5 1.4-1.7 1-2.7l-.6-1.2-.1-.1c1-.8 1.8-1.7 2.5-2.8.1 0 .1.1.1.1l1.3.5c1 .4 2.2-.2 2.6-1.2.4-1-.1-2.1-1.2-2.5zM347.3 310.5l-1.2.1h-.2c-.3-1.1-.8-2.1-1.4-3l.1-.1.8-.9c.7-.7.6-1.9-.1-2.5-.7-.7-1.9-.6-2.5.1l-.8.9s0 .1-.1.1c-.9-.6-2-1-3.1-1.1v-.1l-.1-1.2c0-.8-.6-1.4-1.3-1.6v6.4c2.7 0 5 2.2 5.1 4.9.1 2.9-2.1 5.3-4.9 5.4h-.2v6.4c.2 0 .4.1.5.1 1 0 1.7-.9 1.7-1.9l-.1-1.2v-.1c1.1-.3 2.1-.8 3-1.4l.1.1.9.8c.7.7 1.9.6 2.5-.1.7-.7.6-1.9-.1-2.5l-.9-.8s-.1-.1-.2-.1c.5-.9.9-2 1.1-3.1h.2l1.2-.1c1 0 1.7-.9 1.7-1.9.1-.8-.7-1.6-1.7-1.6z"/></g><g><path class="st18" d="M310.2 82.5h58.7v39.4h-58.7z"/><path class="st19" d="M310.2 121.8l29.4-19.6 29.3 19.6z"/><path class="st20" d="M310.2 82.5l29.4 19.7 29.3-19.7z"/><path class="st19" d="M368.9 82.5l-29.3-19.7-29.4 19.7z"/></g><g><circle class="st14" cx="102.7" cy="321.3" r="26.4"/><path class="st21" d="M128.9 324.6l-13.3-13.3-8.7 3.2-5.5-5.5-6.6 7-6.6 16.5 15.4 15.4c13.1-.6 23.8-10.6 25.3-23.3z"/><path class="st22" d="M114.3 310.6h-12.4l-.1-.6c-.1-1.1-.8-1.8-1.8-1.8h-6.2c-1 0-1.7.7-1.8 1.8l-.1.6h-.7c-1 0-1.8.8-1.8 1.8v5c0 1 .8 1.8 1.8 1.8h23.2c1 0 1.8-.8 1.8-1.8v-5c-.1-1-.9-1.8-1.9-1.8z"/><path class="st22" d="M117.6 331.1c0 1-.8 1.8-1.8 1.8H89.6c-1 0-1.8-.8-1.8-1.8v-16.8c0-1 .8-1.8 1.8-1.8h26.2c1 0 1.8.8 1.8 1.8v16.8z"/><path class="st16" d="M108.7 317.5c-.5.1-1.1.1-1.6 0-.6-.1-1.1-.2-1.7-.3-.9-.2-1.8-.6-2.7-1-.4.2-.8.4-1.3.6-.5.2-1 .3-1.5.4-.5.1-1.1.2-1.7.3h-1.6V318.9c0 .5 0 1 .1 1.5.1 1.2.3 2.3.6 3.5.8 2.8 2.5 5 5.3 6.6 2.7-1.7 4.4-4 5.2-6.7.4-1.1.6-2.3.7-3.4.1-.5.1-1 .1-1.5.2-.5.2-.9.1-1.4zm-1.4 1.9c0 .5 0 .9-.1 1.3-.1 1-.3 2-.6 2.8-.7 2.2-2 3.9-3.9 5.2-2-1.2-3.3-2.9-4-5.1-.3-.8-.4-1.8-.5-2.9 0-.4 0-.8-.1-1.3v-.4h.7c.5 0 1-.1 1.5-.2s.9-.2 1.4-.4c.3-.1.6-.2.9-.4.7.3 1.5.6 2.2.8.6.1 1.1.2 1.6.3H107.2c.1 0 .1.2.1.3z"/><path class="st16" d="M104.4 321.2l-.6-.6-1-1c-.1-.1-.2-.1-.2 0l-2.4 2.4c-.1.1 0 .3.1.3h.3v2.3h1.6v-1.7h1v1.7h1.6v-2.3h.2c.1 0 .2-.2.1-.3-.2-.4-.4-.6-.7-.8z"/><path class="st22" d="M87.8 322.7v8.4c0 1 .8 1.8 1.8 1.8h26.2c1 0 1.8-.8 1.8-1.8v-8.4H87.8z"/><path class="st16" d="M100.7 322.7v1.7h1.5v-1.6h1.1v1.6h1.5v-1.7z"/><path class="st16" d="M106.8 322.7c-.1.3-.1.6-.2.8-.7 2.2-2 3.9-3.9 5.2-2-1.2-3.3-2.9-4-5.1-.1-.3-.2-.6-.2-.9H97l.3 1.2c.8 2.8 2.5 5 5.3 6.6 2.7-1.7 4.4-4 5.2-6.7.1-.4.2-.7.3-1.1h-1.3z"/></g><g><circle class="st16" cx="69.4" cy="112" r="30.4"/><path d="M87.6 125.4c-.5-1.7-8.7-6.3-10.7-6-1.9.3-3.5 4.3-4.4 4.3-.8 0-6-6-7.1-7.4-1-1.4-5.5-7.9-5.4-8.7.2-.8 4.5-1.3 5.3-3.1.8-1.8-1.5-11-3-11.8-1.5-.9-7.9 3.1-8.6 3.9-.6.8-3 3.7-.9 10.6 1.9 6.1 7.4 13.1 7.4 13.1s5.4 7.2 10.8 10.6c6.1 3.8 9.5 2.3 10.4 1.9 1.1-.6 6.7-5.8 6.2-7.4z" class="st23"/><path class="st1" d="M87.2 124.5c-.5-1.7-8.7-6.3-10.7-6-1.9.3-3.5 4.3-4.4 4.3-.8 0-6-6-7.1-7.4-1-1.4-5.5-7.9-5.4-8.7.2-.8 4.5-1.3 5.3-3.1.8-1.8-1.5-11-3-11.8-1.5-.9-7.9 3.1-8.6 3.9-.6.8-3 3.7-.9 10.6 1.9 6.1 7.4 13.1 7.4 13.1s5.4 7.2 10.8 10.6c6.1 3.8 9.5 2.3 10.4 1.9 1.1-.6 6.6-5.8 6.2-7.4z"/></g><path class="st10" d="M11.8 208c.3 4.1-.6 8.1-.6 8.1s5-3 7.9-6.3c1.3.2 2.6.3 3.9.3 12.7 0 23-7.5 23-16.7s-10.3-16.7-23-16.7-23 7.5-23 16.7c0 6.3 4.8 11.7 11.8 14.6zm23.7-18.8c0 1.1-.9 2.1-2.1 2.1H12.6c-1.1 0-2.1-.9-2.1-2.1 0-1.1.9-2.1 2.1-2.1h20.8c1.2 0 2.1 1 2.1 2.1zm-24.9 9.3c0-1.1.9-2.1 2.1-2.1h20.8c1.1 0 2.1.9 2.1 2.1 0 1.1-.9 2.1-2.1 2.1H12.6c-1.1 0-2-1-2-2.1z"/><path class="st6" d="M86.1 195.2c0-12.6-14.1-22.9-31.6-22.9-17.4 0-31.6 10.2-31.6 22.9 0 12.6 14.1 22.9 31.6 22.9 1.8 0 3.6-.1 5.4-.4 4 4.5 10.8 8.6 10.8 8.6s-1.2-5.6-.8-11.2c9.7-3.9 16.2-11.3 16.2-19.9zm-45.8-8.7h28.5c1.6 0 2.8 1.3 2.8 2.8 0 1.6-1.3 2.8-2.8 2.8H40.3c-1.6 0-2.8-1.3-2.8-2.8 0-1.5 1.3-2.8 2.8-2.8zm28.5 18.4H40.3c-1.6 0-2.8-1.3-2.8-2.8 0-1.6 1.3-2.8 2.8-2.8h28.5c1.6 0 2.8 1.3 2.8 2.8.1 1.6-1.2 2.8-2.8 2.8z"/><g><path class="st8" d="M262.3 211.1c3.8 0 6.9-3 7.2-6.9 2-1 3.5-3.6 3.5-6.7v-6.2c0-3.1-1.5-5.7-3.5-6.7-.3-3.9-3.4-6.9-7.2-6.9-4 0-7.2 3.4-7.2 7.6v18.3c-.1 4.1 3.2 7.5 7.2 7.5z"/><path class="st8" d="M262.3 211.1c3.8 0 6.9-3 7.2-6.9 2-1 3.5-3.6 3.5-6.7v-6.2c0-3.1-1.5-5.7-3.5-6.7-.3-3.9-3.4-6.9-7.2-6.9v33.4z"/><g><path class="st8" d="M150.1 177.7c-3.8 0-6.9 3-7.2 6.9-2 1-3.5 3.6-3.5 6.7v6.2c0 3.1 1.5 5.7 3.5 6.7.3 3.9 3.4 6.9 7.2 6.9 4 0 7.2-3.4 7.2-7.6v-18.3c0-4.1-3.2-7.5-7.2-7.5z"/><path class="st8" d="M150.1 177.7c-3.8 0-6.9 3-7.2 6.9-2 1-3.5 3.6-3.5 6.7v6.2c0 3.1 1.5 5.7 3.5 6.7.3 3.9 3.4 6.9 7.2 6.9v-33.4zM195.2 246.8c-37.7-12.9-43.9-42.4-44-42.6l1.6-.3c.1.3 6.1 28.8 42.9 41.4l-.5 1.5z"/><g><path class="st8" d="M197.4 247.4c-.8 1.9-3 2.8-4.9 2l-5.3-2.2c-1.9-.8-2.8-3-2-4.9.8-1.9 3-2.8 4.9-2l5.3 2.2c1.8.7 2.8 2.9 2 4.9z"/><path class="st8" d="M187.1 247.2l5.3 2.2c1.9.8 4.1-.1 4.9-2l-12.3-5.1c-.7 1.9.2 4.1 2.1 4.9z"/></g></g></g></svg>