<svg width="138" height="138" viewBox="0 0 138 138" xmlns="http://www.w3.org/2000/svg" xmlns:xlink="http://www.w3.org/1999/xlink"><defs><path id="a" d="M137.974 68.98c0 37.936-30.755 68.69-68.69 68.69C31.344 137.67.59 106.917.59 68.98S31.347.288 69.284.288c37.936 0 68.69 30.755 68.69 68.692"/></defs><g fill="none" fill-rule="evenodd"><mask id="b" fill="#fff"><use xlink:href="#a"/></mask><use fill="#C7E4FB" xlink:href="#a"/><path d="M45.368 140.56c1.88-5.835 18.907-26.94 21.956-29.31 3.05-2.372 11.517-9.486 3.387-13.212-8.13-3.727-10.16-9.823-11.17-15.244-1.014-5.42-18.29-1.016-24.39-2.71-6.095-1.693-10.5-15.92-7.45-19.646 3.05-3.726 11.518 7.114 13.89 6.098 2.37-1.018 0-5.082 0-9.146 0-4.066 12.53-10.5 15.92-12.874 3.388-2.37-7.79-9.823-11.52-9.823-3.724 0-8.806 3.727-14.564.34-5.76-3.388 5.758-10.164 8.47-12.535 2.708-2.37-3.05-2.71-6.1-4.403-3.047-1.694-2.145-7.75-9.937-9.105 0 0-8.52 5.155-16.14 15.915C.1 35.663-2.59 47.318-2.59 47.318s7.594 1.35 9.2 4.127c1.85 3.205 2.19 16.003 3.388 20.31.796 2.862 2.96 1.885 2.96.56 0-2-2.17-15.638.172-13.57 1.852 1.634 1.768 10.692 5.42 17.274 2.783 5.01 10.95 4.95 18.29 8.46 3.307 1.584-3.047 9.145-2.708 13.21.336 4.064 8.805 9.146 10.16 11.517 1.354 2.37-2.37 4.403-5.42 5.76-3.05 1.355.34 4.403 2.37 8.13 2.033 3.726-2.82 9.61-2.596 15.21l6.724 2.243zM87.505-2.89c1.017 4.743-8.78 25.044-11.492 28.094-2.71 3.048-9.77 9.146-13.156 6.096-3.39-3.048-3.05-14.904-6.775-16.597-3.727-1.695-10.575-11.275-14.3-16.696 0 0 8.74-6.276 28.016-4.034C89.074-3.785 87.505-2.89 87.505-2.89zm56.707 61.863s-12.866.787-14.898 2.142-6.775-.338-8.47-2.032c-1.692-1.695-2.03-3.727-3.047-5.42-1.016-1.694-5.76-1.694-7.453-1.017-1.693.678 5.76 4.742 3.387 4.742-2.37 0-5.41-2.37-7.45-2.032-2.03.34-3.05 3.388-5.08 4.743-2.03 1.35-5.42.67-7.45.33-2.03-.34-3.05-4.744-3.72-6.438-.678-1.693 1.693-4.74 4.403-4.064 2.71.677 4.065-1.694 5.08-3.05 1.017-1.355-1.016-6.435 1.355-6.096 2.37.34 10.5-1.353 14.566-2.37 4.063-1.017 2.71-7.79 4.063-11.18 1.355-3.386 0-3.724-1.693-1.015-1.698 2.71-6.1 5.76-8.13 6.775-2.036 1.015-2.71-2.372-2.71-3.726 0-1.356-2.71.34-3.05-1.695-.34-2.034 6.433-4.405 8.13-5.42 1.69-1.017 5.922-6.775 9.31-7.79 0 0 11.654 7.843 17.26 19.946 5.6 12.108 5.6 24.66 5.6 24.66zm-26.448 67.24s-2.017-6.5-7.34-11.71c-2.615-2.555-.33-15.37-.655-19.296-.33-3.926-11.13-1.31-15.05-3.926-3.93-2.61-2.95-10.79-1.31-15.7 1.64-4.9 11.45-9.81 17.01-11.12 5.56-1.31 12.76 5.56 16.03 6.54 3.27.99 14.69-3.68 17.31-5.97 0 0 2.46 21.296-5.16 36.987-6.634 13.658-20.846 24.206-20.846 24.206z" fill="#A7E8A7" mask="url(#b)"/><g transform="translate(98 31)"><path d="M7.5 0A7.5 7.5 0 0 0 0 7.5c0 4.475 5.68 10.248 7.154 11.672a.497.497 0 0 0 .692 0C9.32 17.748 15 11.975 15 7.5A7.5 7.5 0 0 0 7.5 0z" fill="#E86C60"/><circle fill="#FFF" cx="7.5" cy="7.5" r="2.5"/></g><g transform="translate(13 37)"><path d="M7.5 0A7.5 7.5 0 0 0 0 7.5c0 4.475 5.68 10.248 7.154 11.672a.497.497 0 0 0 .692 0C9.32 17.748 15 11.975 15 7.5A7.5 7.5 0 0 0 7.5 0z" fill="#E86C60"/><circle fill="#FFF" cx="7.5" cy="7.5" r="2.5"/></g><g transform="translate(59 90)"><path d="M7.5 0A7.5 7.5 0 0 0 0 7.5c0 4.475 5.68 10.248 7.154 11.672a.497.497 0 0 0 .692 0C9.32 17.748 15 11.975 15 7.5A7.5 7.5 0 0 0 7.5 0z" fill="#E86C60"/><circle fill="#FFF" cx="7.5" cy="7.5" r="2.5"/></g></g></svg>